M48
; DRILL file {KiCad (5.99.0-8944-g488cfb9ec7)} date Tue Aug 17 17:34:39 2021
; FORMAT={-:-/ absolute / metric / decimal}
; #@! TF.CreationDate,2021-08-17T17:34:39+02:00
; #@! TF.GenerationSoftware,Kicad,Pcbnew,(5.99.0-8944-g488cfb9ec7)
FMAT,2
METRIC
T1C0.600
T2C0.800
T3C0.850
%
G90
G05
T2
X109.855Y-118.11
X114.808Y-125.476
X116.332Y-144.272
X117.348Y-122.936
X119.38Y-119.888
X120.65Y-137.566
X122.682Y-134.188
X124.14Y-146.163
X126.238Y-138.176
X128.676Y-141.834
X128.829Y-139.141
X129.032Y-120.396
X131.42Y-135.941
X132.08Y-120.396
X133.147Y-131.826
X133.198Y-125.832
X133.401Y-141.986
X135.89Y-139.598
X136.776Y-132.695
X137.16Y-128.321
X137.668Y-123.952
X140.208Y-133.096
X140.716Y-123.444
X140.978Y-130.613
X146.812Y-134.112
X147.134Y-123.766
X147.828Y-130.048
X151.13Y-118.985
X151.892Y-130.048
X153.237Y-121.594
X153.237Y-124.644
X153.416Y-127.508
X153.416Y-136.652
X157.48Y-137.795
T3
X156.224Y-120.958
X156.224Y-125.958
T1
G00X158.574Y-119.958
M15
G01X159.274Y-119.958
M16
G05
G00X159.274Y-126.958
M15
G01X158.574Y-126.958
M16
G05
T0
M30
