%TF.GenerationSoftware,KiCad,Pcbnew,(5.99.0-8944-g488cfb9ec7)*%
%TF.CreationDate,2021-08-17T17:34:33+02:00*%
%TF.ProjectId,usb_sdloader,7573625f-7364-46c6-9f61-6465722e6b69,rev?*%
%TF.SameCoordinates,Original*%
%TF.FileFunction,Copper,L1,Top*%
%TF.FilePolarity,Positive*%
%FSLAX46Y46*%
G04 Gerber Fmt 4.6, Leading zero omitted, Abs format (unit mm)*
G04 Created by KiCad (PCBNEW (5.99.0-8944-g488cfb9ec7)) date 2021-08-17 17:34:33*
%MOMM*%
%LPD*%
G01*
G04 APERTURE LIST*
G04 Aperture macros list*
%AMRoundRect*
0 Rectangle with rounded corners*
0 $1 Rounding radius*
0 $2 $3 $4 $5 $6 $7 $8 $9 X,Y pos of 4 corners*
0 Add a 4 corners polygon primitive as box body*
4,1,4,$2,$3,$4,$5,$6,$7,$8,$9,$2,$3,0*
0 Add four circle primitives for the rounded corners*
1,1,$1+$1,$2,$3*
1,1,$1+$1,$4,$5*
1,1,$1+$1,$6,$7*
1,1,$1+$1,$8,$9*
0 Add four rect primitives between the rounded corners*
20,1,$1+$1,$2,$3,$4,$5,0*
20,1,$1+$1,$4,$5,$6,$7,0*
20,1,$1+$1,$6,$7,$8,$9,0*
20,1,$1+$1,$8,$9,$2,$3,0*%
%AMRotRect*
0 Rectangle, with rotation*
0 The origin of the aperture is its center*
0 $1 length*
0 $2 width*
0 $3 Rotation angle, in degrees counterclockwise*
0 Add horizontal line*
21,1,$1,$2,0,0,$3*%
%AMFreePoly0*
4,1,9,3.862500,-0.866500,0.737500,-0.866500,0.737500,-0.450000,-0.737500,-0.450000,-0.737500,0.450000,0.737500,0.450000,0.737500,0.866500,3.862500,0.866500,3.862500,-0.866500,3.862500,-0.866500,$1*%
G04 Aperture macros list end*
%TA.AperFunction,Profile*%
%ADD10C,0.300000*%
%TD*%
%TA.AperFunction,ComponentPad*%
%ADD11O,1.900000X1.200000*%
%TD*%
%TA.AperFunction,ComponentPad*%
%ADD12C,1.450000*%
%TD*%
%TA.AperFunction,SMDPad,CuDef*%
%ADD13RoundRect,0.250000X-0.337500X-0.475000X0.337500X-0.475000X0.337500X0.475000X-0.337500X0.475000X0*%
%TD*%
%TA.AperFunction,SMDPad,CuDef*%
%ADD14C,2.000000*%
%TD*%
%TA.AperFunction,SMDPad,CuDef*%
%ADD15RoundRect,0.237500X0.237500X-0.287500X0.237500X0.287500X-0.237500X0.287500X-0.237500X-0.287500X0*%
%TD*%
%TA.AperFunction,SMDPad,CuDef*%
%ADD16RoundRect,0.250000X-0.475000X0.337500X-0.475000X-0.337500X0.475000X-0.337500X0.475000X0.337500X0*%
%TD*%
%TA.AperFunction,SMDPad,CuDef*%
%ADD17RoundRect,0.100000X-0.637500X-0.100000X0.637500X-0.100000X0.637500X0.100000X-0.637500X0.100000X0*%
%TD*%
%TA.AperFunction,SMDPad,CuDef*%
%ADD18RoundRect,0.250000X0.450000X-0.350000X0.450000X0.350000X-0.450000X0.350000X-0.450000X-0.350000X0*%
%TD*%
%TA.AperFunction,SMDPad,CuDef*%
%ADD19RoundRect,0.250000X-0.450000X0.350000X-0.450000X-0.350000X0.450000X-0.350000X0.450000X0.350000X0*%
%TD*%
%TA.AperFunction,SMDPad,CuDef*%
%ADD20RoundRect,0.250000X0.337500X0.475000X-0.337500X0.475000X-0.337500X-0.475000X0.337500X-0.475000X0*%
%TD*%
%TA.AperFunction,SMDPad,CuDef*%
%ADD21R,1.000000X2.510000*%
%TD*%
%TA.AperFunction,SMDPad,CuDef*%
%ADD22R,0.900000X1.300000*%
%TD*%
%TA.AperFunction,SMDPad,CuDef*%
%ADD23FreePoly0,270.000000*%
%TD*%
%TA.AperFunction,SMDPad,CuDef*%
%ADD24RoundRect,0.237500X-0.237500X0.250000X-0.237500X-0.250000X0.237500X-0.250000X0.237500X0.250000X0*%
%TD*%
%TA.AperFunction,SMDPad,CuDef*%
%ADD25RotRect,1.500000X0.400000X225.000000*%
%TD*%
%TA.AperFunction,SMDPad,CuDef*%
%ADD26RoundRect,0.250001X-0.624999X0.462499X-0.624999X-0.462499X0.624999X-0.462499X0.624999X0.462499X0*%
%TD*%
%TA.AperFunction,SMDPad,CuDef*%
%ADD27R,2.510000X1.000000*%
%TD*%
%TA.AperFunction,SMDPad,CuDef*%
%ADD28RoundRect,0.250001X0.624999X-0.462499X0.624999X0.462499X-0.624999X0.462499X-0.624999X-0.462499X0*%
%TD*%
%TA.AperFunction,SMDPad,CuDef*%
%ADD29RoundRect,0.250000X-0.350000X-0.450000X0.350000X-0.450000X0.350000X0.450000X-0.350000X0.450000X0*%
%TD*%
%TA.AperFunction,SMDPad,CuDef*%
%ADD30RoundRect,0.250000X0.350000X0.450000X-0.350000X0.450000X-0.350000X-0.450000X0.350000X-0.450000X0*%
%TD*%
%TA.AperFunction,ViaPad*%
%ADD31C,2.400000*%
%TD*%
%TA.AperFunction,Conductor*%
%ADD32C,1.000000*%
%TD*%
%TA.AperFunction,Conductor*%
%ADD33C,0.600000*%
%TD*%
%TA.AperFunction,Conductor*%
%ADD34C,0.800000*%
%TD*%
%TA.AperFunction,Conductor*%
%ADD35C,0.400000*%
%TD*%
G04 APERTURE END LIST*
D10*
X107315000Y-115570000D02*
X161925000Y-115570000D01*
X161925000Y-115570000D02*
X161925000Y-151130000D01*
X161925000Y-151130000D02*
X107315000Y-151130000D01*
X107315000Y-151130000D02*
X107315000Y-115570000D01*
D11*
%TO.P,J13,6,Shield*%
%TO.N,GND2*%
X158923579Y-126957576D03*
X158923579Y-119957576D03*
D12*
X156223579Y-125957576D03*
X156223579Y-120957576D03*
%TD*%
D13*
%TO.P,C4,1*%
%TO.N,+3V3*%
X138662500Y-146304000D03*
%TO.P,C4,2*%
%TO.N,GNDD*%
X140737500Y-146304000D03*
%TD*%
D14*
%TO.P,J6,1,Pin_1*%
%TO.N,GNDD*%
X111760000Y-138176000D03*
%TD*%
D15*
%TO.P,FB1,1*%
%TO.N,GNDD*%
X158941516Y-131405859D03*
%TO.P,FB1,2*%
%TO.N,GND2*%
X158941516Y-129655859D03*
%TD*%
D14*
%TO.P,J7,1,Pin_1*%
%TO.N,Net-(J7-Pad1)*%
X111760000Y-126492000D03*
%TD*%
D16*
%TO.P,C5,1*%
%TO.N,GNDD*%
X142875000Y-125327500D03*
%TO.P,C5,2*%
%TO.N,Net-(C5-Pad2)*%
X142875000Y-127402500D03*
%TD*%
D17*
%TO.P,U4,1,SEL*%
%TO.N,/SELECT*%
X120327500Y-129876000D03*
%TO.P,U4,2,S1A*%
%TO.N,Net-(J7-Pad1)*%
X120327500Y-130526000D03*
%TO.P,U4,3,S1B*%
%TO.N,Net-(J8-Pad1)*%
X120327500Y-131176000D03*
%TO.P,U4,4,D1*%
%TO.N,Net-(J9-Pad1)*%
X120327500Y-131826000D03*
%TO.P,U4,5,S2A*%
%TO.N,/DAT2_snif*%
X120327500Y-132476000D03*
%TO.P,U4,6,S2B*%
%TO.N,Net-(R8-Pad2)*%
X120327500Y-133126000D03*
%TO.P,U4,7,D2*%
%TO.N,/DAT2*%
X120327500Y-133776000D03*
%TO.P,U4,8,GND*%
%TO.N,GNDD*%
X120327500Y-134426000D03*
%TO.P,U4,9,D3*%
%TO.N,/DI*%
X126052500Y-134426000D03*
%TO.P,U4,10,S3B*%
%TO.N,/MOSI*%
X126052500Y-133776000D03*
%TO.P,U4,11,S3A*%
%TO.N,/CMD_snif*%
X126052500Y-133126000D03*
%TO.P,U4,12,D4*%
%TO.N,Net-(J12-Pad1)*%
X126052500Y-132476000D03*
%TO.P,U4,13,S4B*%
%TO.N,Net-(J11-Pad1)*%
X126052500Y-131826000D03*
%TO.P,U4,14,S4A*%
%TO.N,Net-(J10-Pad1)*%
X126052500Y-131176000D03*
%TO.P,U4,15,~EN*%
%TO.N,/EN*%
X126052500Y-130526000D03*
%TO.P,U4,16,VDD*%
%TO.N,+3V3*%
X126052500Y-129876000D03*
%TD*%
D14*
%TO.P,J8,1,Pin_1*%
%TO.N,Net-(J8-Pad1)*%
X111760000Y-130302000D03*
%TD*%
D18*
%TO.P,R13,1*%
%TO.N,+3V3*%
X139192000Y-138160000D03*
%TO.P,R13,2*%
%TO.N,/GPIO1*%
X139192000Y-136160000D03*
%TD*%
D19*
%TO.P,R12,1*%
%TO.N,/MOSI*%
X139192000Y-141240000D03*
%TO.P,R12,2*%
%TO.N,+3V3*%
X139192000Y-143240000D03*
%TD*%
D18*
%TO.P,R2,1*%
%TO.N,Net-(R1-Pad2)*%
X153416000Y-144764000D03*
%TO.P,R2,2*%
%TO.N,Net-(D1-Pad2)*%
X153416000Y-142764000D03*
%TD*%
D20*
%TO.P,C8,1*%
%TO.N,GNDD*%
X129561500Y-127508000D03*
%TO.P,C8,2*%
%TO.N,+3V3*%
X127486500Y-127508000D03*
%TD*%
D19*
%TO.P,R3,1*%
%TO.N,+3V3*%
X119888000Y-144288000D03*
%TO.P,R3,2*%
%TO.N,Net-(R3-Pad2)*%
X119888000Y-146288000D03*
%TD*%
D14*
%TO.P,J10,1,Pin_1*%
%TO.N,Net-(J10-Pad1)*%
X124968000Y-126492000D03*
%TD*%
%TO.P,J4,1,Pin_1*%
%TO.N,/MOSI*%
X135890000Y-144119600D03*
%TD*%
D21*
%TO.P,J16,1,Pin_1*%
%TO.N,/DAT2_snif*%
X115570000Y-140847000D03*
%TO.P,J16,2,Pin_2*%
%TO.N,/CD_snif*%
X118110000Y-137537000D03*
%TO.P,J16,3,Pin_3*%
%TO.N,/CMD_snif*%
X120650000Y-140847000D03*
%TO.P,J16,4,Pin_4*%
%TO.N,GNDD*%
X123190000Y-137537000D03*
%TO.P,J16,5,Pin_5*%
%TO.N,+3V3*%
X125730000Y-140847000D03*
%TO.P,J16,6,Pin_6*%
%TO.N,/CLK_snif*%
X128270000Y-137537000D03*
%TO.P,J16,7,Pin_7*%
%TO.N,/DAT0_snif*%
X130810000Y-140847000D03*
%TO.P,J16,8,Pin_8*%
%TO.N,/DAT1_snif*%
X133350000Y-137537000D03*
%TD*%
D22*
%TO.P,U2,1,VI*%
%TO.N,+5V*%
X144756000Y-140590000D03*
D23*
%TO.P,U2,2,GND*%
%TO.N,GNDD*%
X143256000Y-140677500D03*
D22*
%TO.P,U2,3,VO*%
%TO.N,+3V3*%
X141756000Y-140590000D03*
%TD*%
D14*
%TO.P,J9,1,Pin_1*%
%TO.N,Net-(J9-Pad1)*%
X111760000Y-134112000D03*
%TD*%
D16*
%TO.P,C3,1*%
%TO.N,+5V*%
X147320000Y-142748000D03*
%TO.P,C3,2*%
%TO.N,GNDD*%
X147320000Y-144823000D03*
%TD*%
D24*
%TO.P,R10,1*%
%TO.N,GNDD*%
X128676400Y-129643500D03*
%TO.P,R10,2*%
%TO.N,/EN*%
X128676400Y-131468500D03*
%TD*%
D25*
%TO.P,U3,1,CH1*%
%TO.N,/USB_D+*%
X150244071Y-124995167D03*
%TO.P,U3,2,Vn*%
%TO.N,GNDD*%
X149784452Y-124535548D03*
%TO.P,U3,3,CH2*%
%TO.N,/USB_D-*%
X149324833Y-124075929D03*
%TO.P,U3,4,CH3*%
%TO.N,N/C*%
X147443929Y-125956833D03*
%TO.P,U3,5,Vp*%
%TO.N,+5V*%
X147903548Y-126416452D03*
%TO.P,U3,6,CH4*%
%TO.N,N/C*%
X148363167Y-126876071D03*
%TD*%
D14*
%TO.P,J3,1,Pin_1*%
%TO.N,/MISO*%
X140716000Y-120396000D03*
%TD*%
D26*
%TO.P,D2,1,K*%
%TO.N,GNDD*%
X110744000Y-141768500D03*
%TO.P,D2,2,A*%
%TO.N,Net-(D2-Pad2)*%
X110744000Y-144743500D03*
%TD*%
D20*
%TO.P,C6,1*%
%TO.N,GNDD*%
X152421500Y-140208000D03*
%TO.P,C6,2*%
%TO.N,+5V*%
X150346500Y-140208000D03*
%TD*%
D18*
%TO.P,R4,1*%
%TO.N,Net-(R3-Pad2)*%
X113284000Y-146288000D03*
%TO.P,R4,2*%
%TO.N,Net-(D2-Pad2)*%
X113284000Y-144288000D03*
%TD*%
D19*
%TO.P,R1,1*%
%TO.N,+5V*%
X150368000Y-142748000D03*
%TO.P,R1,2*%
%TO.N,Net-(R1-Pad2)*%
X150368000Y-144748000D03*
%TD*%
D27*
%TO.P,JP1,1,1*%
%TO.N,Net-(JP1-Pad1)*%
X146943000Y-132842000D03*
%TO.P,JP1,2,2*%
%TO.N,GNDD*%
X143633000Y-130302000D03*
%TD*%
D28*
%TO.P,D1,1,K*%
%TO.N,GNDD*%
X156464000Y-144743500D03*
%TO.P,D1,2,A*%
%TO.N,Net-(D1-Pad2)*%
X156464000Y-141768500D03*
%TD*%
D14*
%TO.P,J5,1,Pin_1*%
%TO.N,/SCK*%
X135636000Y-120396000D03*
%TD*%
D29*
%TO.P,R5,1*%
%TO.N,+5V*%
X144780000Y-138176000D03*
%TO.P,R5,2*%
%TO.N,Net-(JP1-Pad1)*%
X146780000Y-138176000D03*
%TD*%
D15*
%TO.P,FB2,1*%
%TO.N,GNDD*%
X155796544Y-131397381D03*
%TO.P,FB2,2*%
%TO.N,GND1*%
X155796544Y-129647381D03*
%TD*%
D18*
%TO.P,R11,1*%
%TO.N,+3V3*%
X141732000Y-138160000D03*
%TO.P,R11,2*%
%TO.N,/MISO*%
X141732000Y-136160000D03*
%TD*%
D14*
%TO.P,J12,1,Pin_1*%
%TO.N,Net-(J12-Pad1)*%
X117348000Y-126492000D03*
%TD*%
%TO.P,J11,1,Pin_1*%
%TO.N,Net-(J11-Pad1)*%
X121412000Y-126492000D03*
%TD*%
D30*
%TO.P,R8,1*%
%TO.N,+3V3*%
X118348000Y-134366000D03*
%TO.P,R8,2*%
%TO.N,Net-(R8-Pad2)*%
X116348000Y-134366000D03*
%TD*%
D15*
%TO.P,FB3,1*%
%TO.N,+5V*%
X144780000Y-126605000D03*
%TO.P,FB3,2*%
%TO.N,VBUS*%
X144780000Y-124855000D03*
%TD*%
D31*
%TO.N,GNDD*%
X109855000Y-118110000D03*
%TO.N,/MISO*%
X140977998Y-130612634D03*
%TO.N,VBUS*%
X151130000Y-118984884D03*
%TO.N,GND1*%
X153416000Y-127508000D03*
%TO.N,GNDD*%
X117348000Y-122936000D03*
X120650000Y-137566400D03*
X147133918Y-123765918D03*
X151892000Y-130048000D03*
X124139747Y-146162610D03*
X157480000Y-137795000D03*
X131419600Y-135940800D03*
%TO.N,+5V*%
X153416000Y-136652000D03*
%TO.N,+3V3*%
X133400800Y-141986000D03*
X119380000Y-119888000D03*
X116332000Y-144272000D03*
%TO.N,Net-(C5-Pad2)*%
X147828000Y-130048000D03*
%TO.N,/GPIO1*%
X140208000Y-133096000D03*
X133197600Y-125831600D03*
%TO.N,/MISO*%
X140716000Y-123444000D03*
%TO.N,/MOSI*%
X135890000Y-139598400D03*
%TO.N,/SCK*%
X137668000Y-123952000D03*
%TO.N,/USB_D-*%
X153236998Y-121594000D03*
%TO.N,/USB_D+*%
X153236998Y-124644000D03*
%TO.N,/DO*%
X132080000Y-120396000D03*
X137160000Y-128320800D03*
%TO.N,/DI*%
X136775937Y-132694807D03*
%TO.N,/DAT1_snif*%
X129032000Y-120396000D03*
%TO.N,/CLK_snif*%
X128828800Y-139141200D03*
%TO.N,/CD_snif*%
X126238000Y-138176000D03*
%TO.N,/DAT0_snif*%
X128676400Y-141833600D03*
%TO.N,Net-(JP1-Pad1)*%
X146812000Y-134112000D03*
%TO.N,/SELECT*%
X114808000Y-125476000D03*
%TO.N,/EN*%
X133146800Y-131826000D03*
%TO.N,/DAT2*%
X122682000Y-134188000D03*
%TD*%
D32*
%TO.N,+5V*%
X149860000Y-132588000D02*
X149860000Y-133096000D01*
X149860000Y-133096000D02*
X153416000Y-136652000D01*
D33*
X153416000Y-136652000D02*
X153416000Y-136144000D01*
D34*
%TO.N,/MISO*%
X139065000Y-128905000D02*
X139065000Y-128397000D01*
X140977998Y-130612634D02*
X140772634Y-130612634D01*
X140772634Y-130612634D02*
X139065000Y-128905000D01*
X139065000Y-128905000D02*
X139065000Y-125095000D01*
X139065000Y-125095000D02*
X140716000Y-123444000D01*
X142708838Y-132343474D02*
X140977998Y-130612634D01*
X142708838Y-135183162D02*
X142708838Y-132343474D01*
X141732000Y-136160000D02*
X142708838Y-135183162D01*
%TO.N,Net-(C5-Pad2)*%
X145948600Y-128905000D02*
X144773620Y-127730020D01*
X147828000Y-130048000D02*
X146685000Y-128905000D01*
X146685000Y-128905000D02*
X145948600Y-128905000D01*
X144773620Y-127730020D02*
X143202520Y-127730020D01*
X143202520Y-127730020D02*
X142875000Y-127402500D01*
%TO.N,VBUS*%
X147321479Y-120651479D02*
X148988073Y-118984884D01*
X144780000Y-123192957D02*
X147321479Y-120651479D01*
X148988074Y-118984884D02*
X151130000Y-118984884D01*
X147321479Y-120651479D02*
X148988074Y-118984884D01*
%TO.N,GND1*%
X153416000Y-127508000D02*
X153657163Y-127508000D01*
X153657163Y-127508000D02*
X155796544Y-129647381D01*
%TO.N,VBUS*%
X144780000Y-124855000D02*
X144780000Y-123192957D01*
D35*
%TO.N,+5V*%
X147903548Y-126416452D02*
X147291396Y-127028604D01*
X147291396Y-127028604D02*
X145203604Y-127028604D01*
X145203604Y-127028604D02*
X144780000Y-126605000D01*
%TO.N,GNDD*%
X147828000Y-124460000D02*
X147320000Y-123952000D01*
X147828000Y-124460000D02*
X147133918Y-123765918D01*
X149172300Y-125147700D02*
X148515700Y-125147700D01*
X149784452Y-124535548D02*
X149172300Y-125147700D01*
X148515700Y-125147700D02*
X147828000Y-124460000D01*
D32*
%TO.N,+5V*%
X149860000Y-132588000D02*
X149860000Y-126746000D01*
D35*
X147903548Y-126416452D02*
X148515700Y-125804300D01*
X148515700Y-125804300D02*
X149172300Y-125804300D01*
X149860000Y-126492000D02*
X149860000Y-126746000D01*
X149860000Y-126746000D02*
X149860000Y-127508000D01*
X149172300Y-125804300D02*
X149860000Y-126492000D01*
D32*
%TO.N,+3V3*%
X134518400Y-146304000D02*
X133400800Y-145186400D01*
D34*
X133400800Y-141986000D02*
X133400800Y-144475200D01*
X123409200Y-144288000D02*
X119888000Y-144288000D01*
D32*
X127486500Y-127508000D02*
X127486500Y-125352900D01*
X122215399Y-144262599D02*
X123383799Y-144262599D01*
D34*
X116332000Y-144272000D02*
X119872000Y-144272000D01*
X116670011Y-143933989D02*
X116670011Y-136141969D01*
D32*
X141756000Y-140590000D02*
X141756000Y-138184000D01*
X122021600Y-119888000D02*
X119380000Y-119888000D01*
X141756000Y-140590000D02*
X141756000Y-140819532D01*
D34*
X133400800Y-144475200D02*
X133400800Y-145186400D01*
D32*
X133400800Y-141986000D02*
X133400800Y-145186400D01*
D34*
X124984000Y-144288000D02*
X125492000Y-144288000D01*
X116670011Y-136141969D02*
X118348000Y-134463980D01*
D32*
X122215399Y-144262599D02*
X133188199Y-144262599D01*
X133188199Y-144262599D02*
X133400800Y-144475200D01*
X116341401Y-144262599D02*
X125974599Y-144262599D01*
X127486500Y-125352900D02*
X122021600Y-119888000D01*
D35*
X126052500Y-128942000D02*
X127486500Y-127508000D01*
D34*
X118348000Y-134463980D02*
X118348000Y-134366000D01*
D32*
X116332000Y-144272000D02*
X116341401Y-144262599D01*
D34*
X126000000Y-144288000D02*
X124984000Y-144288000D01*
D35*
X126052500Y-129876000D02*
X126052500Y-128942000D01*
D32*
X138662500Y-146304000D02*
X138662500Y-143769500D01*
X139192000Y-143240000D02*
X139335532Y-143240000D01*
X138662500Y-143769500D02*
X139192000Y-143240000D01*
X141756000Y-138184000D02*
X141732000Y-138160000D01*
D34*
X133400800Y-144475200D02*
X133213600Y-144288000D01*
D32*
X141732000Y-138160000D02*
X139192000Y-138160000D01*
D34*
X124984000Y-144288000D02*
X123409200Y-144288000D01*
D32*
X116341401Y-144262599D02*
X122215399Y-144262599D01*
X125730000Y-144050000D02*
X125730000Y-140847000D01*
D34*
X119872000Y-144272000D02*
X119888000Y-144288000D01*
X133213600Y-144288000D02*
X126000000Y-144288000D01*
D32*
X138662500Y-146304000D02*
X134518400Y-146304000D01*
D34*
X116332000Y-144272000D02*
X116670011Y-143933989D01*
D32*
X141756000Y-140819532D02*
X139335532Y-143240000D01*
%TO.N,Net-(C5-Pad2)*%
X147828000Y-130048000D02*
X147828000Y-129518500D01*
D34*
%TO.N,Net-(D1-Pad2)*%
X153416000Y-142764000D02*
X155468500Y-142764000D01*
X155468500Y-142764000D02*
X156464000Y-141768500D01*
%TO.N,Net-(D2-Pad2)*%
X111199500Y-144288000D02*
X110744000Y-144743500D01*
X113284000Y-144288000D02*
X111199500Y-144288000D01*
D35*
%TO.N,/GPIO1*%
X137067980Y-129955980D02*
X137575980Y-129955980D01*
D32*
X140208000Y-135144000D02*
X140208000Y-133096000D01*
X139192000Y-136160000D02*
X140208000Y-135144000D01*
D35*
X140208000Y-132588000D02*
X140208000Y-133096000D01*
X137575980Y-129955980D02*
X140208000Y-132588000D01*
X133197600Y-125831600D02*
X133197600Y-127101600D01*
X136051980Y-129955980D02*
X137067980Y-129955980D01*
X133197600Y-127101600D02*
X136051980Y-129955980D01*
D32*
%TO.N,/MISO*%
X140716000Y-120396000D02*
X140716000Y-123444000D01*
D35*
%TO.N,/MOSI*%
X124907620Y-134725756D02*
X125411464Y-135229600D01*
X129540000Y-136245600D02*
X129540000Y-137210800D01*
X126052500Y-133776000D02*
X125151600Y-133776000D01*
X131927600Y-139598400D02*
X135890000Y-139598400D01*
X128524000Y-135229600D02*
X129540000Y-136245600D01*
X124907620Y-134019980D02*
X124907620Y-134725756D01*
X125151600Y-133776000D02*
X124907620Y-134019980D01*
X129540000Y-137210800D02*
X131927600Y-139598400D01*
X125411464Y-135229600D02*
X128524000Y-135229600D01*
D32*
%TO.N,/SCK*%
X137668000Y-123952000D02*
X137668000Y-122428000D01*
X137668000Y-122428000D02*
X135636000Y-120396000D01*
D35*
%TO.N,Net-(J7-Pad1)*%
X113284000Y-126492000D02*
X111760000Y-126492000D01*
X120327500Y-130526000D02*
X117318000Y-130526000D01*
X117318000Y-130526000D02*
X113284000Y-126492000D01*
%TO.N,Net-(J8-Pad1)*%
X111760000Y-130302000D02*
X115824000Y-130302000D01*
X115824000Y-130302000D02*
X116205000Y-130683000D01*
X120327500Y-131176000D02*
X116698000Y-131176000D01*
X116698000Y-131176000D02*
X116205000Y-130683000D01*
%TO.N,Net-(J9-Pad1)*%
X114046000Y-131826000D02*
X111760000Y-134112000D01*
X120327500Y-131826000D02*
X114046000Y-131826000D01*
%TO.N,Net-(J10-Pad1)*%
X126052500Y-131176000D02*
X125257864Y-131176000D01*
X125257864Y-131176000D02*
X124914980Y-130833116D01*
X124914980Y-130833116D02*
X124914980Y-126545020D01*
X124914980Y-126545020D02*
X124968000Y-126492000D01*
%TO.N,Net-(J11-Pad1)*%
X125059308Y-131826000D02*
X121412000Y-128178692D01*
X121412000Y-128178692D02*
X121412000Y-126492000D01*
X126052500Y-131826000D02*
X125059308Y-131826000D01*
%TO.N,Net-(J12-Pad1)*%
X119776654Y-128920654D02*
X117348000Y-126492000D01*
X121015346Y-128920654D02*
X119776654Y-128920654D01*
X124570692Y-132476000D02*
X121015346Y-128920654D01*
X126052500Y-132476000D02*
X124570692Y-132476000D01*
%TO.N,/USB_D-*%
X149395515Y-124075929D02*
X149324833Y-124075929D01*
X150396603Y-123463777D02*
X150007667Y-123463777D01*
X153236998Y-121594000D02*
X152036998Y-122794000D01*
X151066380Y-122794000D02*
X150396603Y-123463777D01*
X152036998Y-122794000D02*
X151066380Y-122794000D01*
X150007667Y-123463777D02*
X149395515Y-124075929D01*
%TO.N,/USB_D+*%
X150856223Y-123923397D02*
X150856223Y-124312333D01*
X151335620Y-123444000D02*
X150856223Y-123923397D01*
X150244071Y-124924485D02*
X150244071Y-124995167D01*
X153236998Y-124644000D02*
X152036998Y-123444000D01*
X150856223Y-124312333D02*
X150244071Y-124924485D01*
X152036998Y-123444000D02*
X151335620Y-123444000D01*
D32*
%TO.N,/DO*%
X135259989Y-123575989D02*
X132080000Y-120396000D01*
X135259989Y-126420789D02*
X135259989Y-123575989D01*
X137160000Y-128320800D02*
X135259989Y-126420789D01*
%TO.N,/DI*%
X135612744Y-133858000D02*
X128270000Y-133858000D01*
D35*
X127702000Y-134426000D02*
X128016000Y-134112000D01*
D32*
X128270000Y-133858000D02*
X128016000Y-134112000D01*
X136775937Y-132694807D02*
X135612744Y-133858000D01*
D35*
X126052500Y-134426000D02*
X127702000Y-134426000D01*
%TO.N,/DAT1_snif*%
X133350000Y-136855200D02*
X134874000Y-135331200D01*
X129032000Y-120396000D02*
X131022991Y-122386991D01*
X135553982Y-130556000D02*
X137005147Y-130556000D01*
X134874000Y-135331200D02*
X135585200Y-135331200D01*
X131022991Y-126025009D02*
X135553982Y-130556000D01*
X133350000Y-137537000D02*
X133350000Y-136855200D01*
X131022991Y-122386991D02*
X131022991Y-126025009D01*
X138531600Y-132082453D02*
X138531600Y-133553200D01*
X137005147Y-130556000D02*
X138531600Y-132082453D01*
X136753600Y-135331200D02*
X134874000Y-135331200D01*
X138531600Y-133553200D02*
X136753600Y-135331200D01*
%TO.N,/CD_snif*%
X119126000Y-142748000D02*
X118110000Y-141732000D01*
X125925980Y-138176000D02*
X123952000Y-140149980D01*
X123952000Y-140149980D02*
X123952000Y-141224000D01*
X118110000Y-141732000D02*
X118110000Y-137537000D01*
X118110000Y-139446000D02*
X118110000Y-137537000D01*
X126238000Y-138176000D02*
X125925980Y-138176000D01*
X123952000Y-141224000D02*
X122428000Y-142748000D01*
X122428000Y-142748000D02*
X119126000Y-142748000D01*
%TO.N,/DAT0_snif*%
X130810000Y-141681200D02*
X130657600Y-141833600D01*
X130810000Y-140847000D02*
X130810000Y-141681200D01*
X130657600Y-141833600D02*
X128676400Y-141833600D01*
%TO.N,/CMD_snif*%
X124307600Y-133451600D02*
X124307600Y-138894420D01*
X124633200Y-133126000D02*
X124307600Y-133451600D01*
X122355020Y-140847000D02*
X120650000Y-140847000D01*
X126052500Y-133126000D02*
X124633200Y-133126000D01*
X124307600Y-138894420D02*
X122355020Y-140847000D01*
%TO.N,/DAT2_snif*%
X115062000Y-133096000D02*
X115682000Y-132476000D01*
D32*
X115062000Y-140339000D02*
X115062000Y-135737600D01*
D35*
X115682000Y-132476000D02*
X120327500Y-132476000D01*
D32*
X115570000Y-140847000D02*
X115062000Y-140339000D01*
D35*
X115062000Y-135737600D02*
X115062000Y-133096000D01*
D34*
%TO.N,Net-(JP1-Pad1)*%
X146780000Y-133636000D02*
X146812000Y-133604000D01*
D35*
%TO.N,/SELECT*%
X114808000Y-127000000D02*
X114808000Y-125476000D01*
X117684000Y-129876000D02*
X114808000Y-127000000D01*
X120327500Y-129876000D02*
X117684000Y-129876000D01*
D34*
%TO.N,Net-(R1-Pad2)*%
X150368000Y-144748000D02*
X153400000Y-144748000D01*
X153400000Y-144748000D02*
X153416000Y-144764000D01*
D35*
%TO.N,Net-(R8-Pad2)*%
X117588000Y-133126000D02*
X116348000Y-134366000D01*
X120327500Y-133126000D02*
X117588000Y-133126000D01*
%TO.N,/EN*%
X127224000Y-130526000D02*
X126052500Y-130526000D01*
D32*
X127762000Y-131064000D02*
X128524000Y-131826000D01*
D35*
X127762000Y-131064000D02*
X127224000Y-130526000D01*
D32*
X128524000Y-131826000D02*
X129033900Y-131826000D01*
X133146800Y-131826000D02*
X129033900Y-131826000D01*
D35*
%TO.N,/DAT2*%
X122270000Y-133776000D02*
X122682000Y-134188000D01*
X120327500Y-133776000D02*
X122270000Y-133776000D01*
%TD*%
%TA.AperFunction,Conductor*%
%TO.N,Net-(JP1-Pad1)*%
G36*
X148131488Y-132098954D02*
G01*
X148212270Y-132152930D01*
X148266246Y-132233712D01*
X148285200Y-132329000D01*
X148285200Y-138841400D01*
X148266246Y-138936688D01*
X148212270Y-139017470D01*
X148131488Y-139071446D01*
X148036200Y-139090400D01*
X146109012Y-139090400D01*
X146013724Y-139071446D01*
X145932942Y-139017470D01*
X145878966Y-138936688D01*
X145860012Y-138841400D01*
X145868403Y-138784754D01*
X145867423Y-138784564D01*
X145869855Y-138772019D01*
X145873560Y-138759788D01*
X145880500Y-138682025D01*
X145880500Y-137683113D01*
X145865237Y-137552197D01*
X145805534Y-137387718D01*
X145709593Y-137241385D01*
X145699093Y-137231438D01*
X145593068Y-137130999D01*
X145593066Y-137130997D01*
X145582562Y-137121047D01*
X145570050Y-137113779D01*
X145570048Y-137113778D01*
X145513537Y-137080954D01*
X145440660Y-137016705D01*
X145397917Y-136929457D01*
X145389600Y-136865640D01*
X145389600Y-132329000D01*
X145408554Y-132233712D01*
X145462530Y-132152930D01*
X145543312Y-132098954D01*
X145638600Y-132080000D01*
X148036200Y-132080000D01*
X148131488Y-132098954D01*
G37*
%TD.AperFunction*%
%TD*%
%TA.AperFunction,Conductor*%
%TO.N,+3V3*%
G36*
X128268688Y-126409354D02*
G01*
X128349470Y-126463330D01*
X128403446Y-126544112D01*
X128422400Y-126639400D01*
X128422400Y-128439860D01*
X128403446Y-128535148D01*
X128349470Y-128615930D01*
X128268688Y-128669906D01*
X128258371Y-128673913D01*
X128106215Y-128729143D01*
X128094116Y-128737076D01*
X128094115Y-128737076D01*
X127974402Y-128815563D01*
X127974399Y-128815565D01*
X127962303Y-128823496D01*
X127952355Y-128833997D01*
X127952353Y-128833999D01*
X127853906Y-128937922D01*
X127853904Y-128937925D01*
X127843957Y-128948425D01*
X127757524Y-129097229D01*
X127707643Y-129261926D01*
X127700900Y-129337478D01*
X127700900Y-129600917D01*
X127681946Y-129696205D01*
X127627970Y-129776987D01*
X127547188Y-129830963D01*
X127451900Y-129849917D01*
X127401825Y-129843591D01*
X127399451Y-129842665D01*
X127340070Y-129834847D01*
X127327199Y-129832808D01*
X127316617Y-129830847D01*
X127268298Y-129821892D01*
X127253312Y-129822756D01*
X127253310Y-129822756D01*
X127212888Y-129825087D01*
X127198554Y-129825500D01*
X125864480Y-129825500D01*
X125769192Y-129806546D01*
X125688410Y-129752570D01*
X125634434Y-129671788D01*
X125615480Y-129576500D01*
X125615480Y-127999203D01*
X125634434Y-127903915D01*
X125688410Y-127823133D01*
X125734304Y-127787406D01*
X125738881Y-127785164D01*
X125939737Y-127641895D01*
X126114496Y-127467745D01*
X126258465Y-127267390D01*
X126367778Y-127046212D01*
X126439500Y-126810149D01*
X126466259Y-126606897D01*
X126497487Y-126514900D01*
X126561546Y-126441855D01*
X126648682Y-126398885D01*
X126713128Y-126390400D01*
X128173400Y-126390400D01*
X128268688Y-126409354D01*
G37*
%TD.AperFunction*%
%TD*%
%TA.AperFunction,Conductor*%
%TO.N,Net-(R3-Pad2)*%
G36*
X112594325Y-145349490D02*
G01*
X112687981Y-145377856D01*
X112687985Y-145377857D01*
X112700212Y-145381560D01*
X112738364Y-145384965D01*
X112772458Y-145388008D01*
X112772466Y-145388008D01*
X112777975Y-145388500D01*
X113776887Y-145388500D01*
X113907803Y-145373237D01*
X113921400Y-145368301D01*
X113921402Y-145368301D01*
X113961511Y-145353742D01*
X114046470Y-145338800D01*
X114893262Y-145338800D01*
X114988550Y-145357754D01*
X115069332Y-145411730D01*
X115078730Y-145421660D01*
X115151550Y-145502962D01*
X115351329Y-145667354D01*
X115359453Y-145672187D01*
X115565544Y-145794799D01*
X115565548Y-145794801D01*
X115573675Y-145799636D01*
X115813472Y-145896764D01*
X115822664Y-145898945D01*
X115822666Y-145898946D01*
X115939336Y-145926633D01*
X116065201Y-145956502D01*
X116074619Y-145957268D01*
X116074625Y-145957269D01*
X116313634Y-145976710D01*
X116313641Y-145976710D01*
X116323070Y-145977477D01*
X116581145Y-145959204D01*
X116590370Y-145957117D01*
X116590374Y-145957116D01*
X116824267Y-145904191D01*
X116824266Y-145904191D01*
X116833486Y-145902105D01*
X117074287Y-145807494D01*
X117298006Y-145677547D01*
X117499495Y-145515256D01*
X117586871Y-145419735D01*
X117665167Y-145362221D01*
X117759518Y-145339047D01*
X117770596Y-145338800D01*
X119126148Y-145338800D01*
X119198325Y-145349490D01*
X119291981Y-145377856D01*
X119291985Y-145377857D01*
X119304212Y-145381560D01*
X119342364Y-145384965D01*
X119376458Y-145388008D01*
X119376466Y-145388008D01*
X119381975Y-145388500D01*
X120380887Y-145388500D01*
X120511803Y-145373237D01*
X120525400Y-145368301D01*
X120525402Y-145368301D01*
X120565511Y-145353742D01*
X120650470Y-145338800D01*
X120655000Y-145338800D01*
X120750288Y-145357754D01*
X120831070Y-145411730D01*
X120885046Y-145492512D01*
X120904000Y-145587800D01*
X120904000Y-147375800D01*
X120885046Y-147471088D01*
X120831070Y-147551870D01*
X120750288Y-147605846D01*
X120655000Y-147624800D01*
X112415400Y-147624800D01*
X112320112Y-147605846D01*
X112239330Y-147551870D01*
X112185354Y-147471088D01*
X112166400Y-147375800D01*
X112166400Y-145587800D01*
X112185354Y-145492512D01*
X112239330Y-145411730D01*
X112320112Y-145357754D01*
X112415400Y-145338800D01*
X112522148Y-145338800D01*
X112594325Y-145349490D01*
G37*
%TD.AperFunction*%
%TD*%
%TA.AperFunction,Conductor*%
%TO.N,+5V*%
G36*
X150548550Y-131133754D02*
G01*
X150629332Y-131187730D01*
X150638730Y-131197660D01*
X150711550Y-131278962D01*
X150911329Y-131443354D01*
X150919453Y-131448187D01*
X151125544Y-131570799D01*
X151125548Y-131570801D01*
X151133675Y-131575636D01*
X151142437Y-131579185D01*
X151142443Y-131579188D01*
X151228479Y-131614036D01*
X151309682Y-131667377D01*
X151364291Y-131747732D01*
X151384000Y-131844823D01*
X151384000Y-135331200D01*
X154691000Y-135331200D01*
X154786288Y-135350154D01*
X154867070Y-135404130D01*
X154921046Y-135484912D01*
X154940000Y-135580200D01*
X154940000Y-137977800D01*
X154921046Y-138073088D01*
X154867070Y-138153870D01*
X154786288Y-138207846D01*
X154691000Y-138226800D01*
X151384000Y-138226800D01*
X151384000Y-139418507D01*
X151373310Y-139490684D01*
X151346019Y-139580793D01*
X151340440Y-139599212D01*
X151333500Y-139676975D01*
X151333500Y-140725887D01*
X151348763Y-140856803D01*
X151353699Y-140870400D01*
X151353699Y-140870402D01*
X151369058Y-140912715D01*
X151384000Y-140997674D01*
X151384000Y-143210200D01*
X151365046Y-143305488D01*
X151311070Y-143386270D01*
X151230288Y-143440246D01*
X151135000Y-143459200D01*
X144877000Y-143459200D01*
X144781712Y-143440246D01*
X144700930Y-143386270D01*
X144646954Y-143305488D01*
X144628000Y-143210200D01*
X144628000Y-141415000D01*
X144622855Y-141343060D01*
X144582319Y-141205008D01*
X144504531Y-141083968D01*
X144395794Y-140989746D01*
X144357060Y-140972057D01*
X144278259Y-140915234D01*
X144227200Y-140832578D01*
X144211500Y-140745560D01*
X144211500Y-139940000D01*
X144206355Y-139868060D01*
X144165819Y-139730008D01*
X144108328Y-139640550D01*
X144072756Y-139550143D01*
X144068800Y-139505931D01*
X144068800Y-137612200D01*
X144087754Y-137516912D01*
X144141730Y-137436130D01*
X144222512Y-137382154D01*
X144317800Y-137363200D01*
X144983519Y-137363200D01*
X145078807Y-137382154D01*
X145148184Y-137425421D01*
X145178299Y-137451970D01*
X145182883Y-137456011D01*
X145187832Y-137459577D01*
X145257458Y-137509747D01*
X145257466Y-137509752D01*
X145262405Y-137513311D01*
X145265787Y-137515275D01*
X145300623Y-137542694D01*
X145302342Y-137544322D01*
X145339421Y-137588699D01*
X145339603Y-137588977D01*
X145365286Y-137640269D01*
X145365398Y-137640577D01*
X145378717Y-137696864D01*
X145378828Y-137697817D01*
X145380500Y-137726624D01*
X145380500Y-138645920D01*
X145377483Y-138684562D01*
X145377406Y-138685051D01*
X145376562Y-138689405D01*
X145376032Y-138693795D01*
X145376029Y-138693815D01*
X145374702Y-138704814D01*
X145373132Y-138711389D01*
X145373800Y-138711488D01*
X145365409Y-138768134D01*
X145362002Y-138796835D01*
X145362574Y-138807509D01*
X145362574Y-138807514D01*
X145369143Y-138930070D01*
X145369619Y-138938945D01*
X145388573Y-139034233D01*
X145401809Y-139086092D01*
X145463229Y-139214470D01*
X145468169Y-139221863D01*
X145515361Y-139292493D01*
X145515370Y-139292506D01*
X145517205Y-139295252D01*
X145519192Y-139297906D01*
X145519196Y-139297912D01*
X145541957Y-139328318D01*
X145541962Y-139328323D01*
X145549285Y-139338106D01*
X145655160Y-139433207D01*
X145720189Y-139476657D01*
X145728549Y-139482243D01*
X145735942Y-139487183D01*
X145738817Y-139488889D01*
X145738822Y-139488892D01*
X145745865Y-139493070D01*
X145781970Y-139514493D01*
X145793499Y-139518560D01*
X145793503Y-139518562D01*
X145907804Y-139558885D01*
X145907811Y-139558887D01*
X145916179Y-139561839D01*
X145950233Y-139568613D01*
X146005478Y-139579602D01*
X146005484Y-139579603D01*
X146011467Y-139580793D01*
X146060240Y-139585597D01*
X146102929Y-139589801D01*
X146102931Y-139589801D01*
X146109012Y-139590400D01*
X148036200Y-139590400D01*
X148042281Y-139589801D01*
X148042283Y-139589801D01*
X148084972Y-139585597D01*
X148133745Y-139580793D01*
X148139728Y-139579603D01*
X148139734Y-139579602D01*
X148225796Y-139562483D01*
X148225800Y-139562482D01*
X148229033Y-139561839D01*
X148280892Y-139548603D01*
X148409270Y-139487183D01*
X148480417Y-139439645D01*
X148487293Y-139435051D01*
X148487306Y-139435042D01*
X148490052Y-139433207D01*
X148497990Y-139427265D01*
X148523118Y-139408455D01*
X148523123Y-139408450D01*
X148532906Y-139401127D01*
X148628007Y-139295252D01*
X148681983Y-139214470D01*
X148709293Y-139168442D01*
X148714597Y-139153407D01*
X148753685Y-139042608D01*
X148753687Y-139042601D01*
X148756639Y-139034233D01*
X148775593Y-138938945D01*
X148785200Y-138841400D01*
X148785200Y-132329000D01*
X148775593Y-132231455D01*
X148756639Y-132136167D01*
X148743403Y-132084308D01*
X148681983Y-131955930D01*
X148662659Y-131927009D01*
X148629851Y-131877907D01*
X148629842Y-131877894D01*
X148628007Y-131875148D01*
X148626019Y-131872492D01*
X148624086Y-131869761D01*
X148624555Y-131869429D01*
X148584096Y-131784851D01*
X148578903Y-131687835D01*
X148611231Y-131596216D01*
X148676159Y-131523943D01*
X148700291Y-131507981D01*
X148794006Y-131453547D01*
X148995495Y-131291256D01*
X149082871Y-131195735D01*
X149161167Y-131138221D01*
X149255518Y-131115047D01*
X149266596Y-131114800D01*
X150453262Y-131114800D01*
X150548550Y-131133754D01*
G37*
%TD.AperFunction*%
%TD*%
%TA.AperFunction,Conductor*%
%TO.N,Net-(D1-Pad2)*%
G36*
X157529488Y-140785754D02*
G01*
X157610270Y-140839730D01*
X157664246Y-140920512D01*
X157683200Y-141015800D01*
X157683200Y-143261000D01*
X157664246Y-143356288D01*
X157610270Y-143437070D01*
X157529488Y-143491046D01*
X157434200Y-143510000D01*
X152496600Y-143510000D01*
X152401312Y-143491046D01*
X152320530Y-143437070D01*
X152266554Y-143356288D01*
X152247600Y-143261000D01*
X152247600Y-141682500D01*
X152266554Y-141587212D01*
X152320530Y-141506430D01*
X152401312Y-141452454D01*
X152496600Y-141433500D01*
X152801887Y-141433500D01*
X152932803Y-141418237D01*
X152946400Y-141413301D01*
X152946402Y-141413301D01*
X153034783Y-141381220D01*
X153097282Y-141358534D01*
X153243615Y-141262593D01*
X153363953Y-141135562D01*
X153451839Y-140984255D01*
X153464145Y-140943624D01*
X153509906Y-140857921D01*
X153584980Y-140796253D01*
X153677939Y-140768010D01*
X153702455Y-140766800D01*
X157434200Y-140766800D01*
X157529488Y-140785754D01*
G37*
%TD.AperFunction*%
%TD*%
%TA.AperFunction,Conductor*%
%TO.N,/MOSI*%
G36*
X137837788Y-136315354D02*
G01*
X137918570Y-136369330D01*
X137972546Y-136450112D01*
X137990128Y-136538502D01*
X137991081Y-136538447D01*
X137991479Y-136545293D01*
X137991500Y-136545400D01*
X137991500Y-136552887D01*
X138006763Y-136683803D01*
X138066466Y-136848282D01*
X138074397Y-136860378D01*
X138152913Y-136980134D01*
X138162407Y-136994615D01*
X138171276Y-137003016D01*
X138217217Y-137087101D01*
X138227627Y-137183697D01*
X138200278Y-137276924D01*
X138160382Y-137332806D01*
X138137047Y-137357438D01*
X138049161Y-137508745D01*
X137998440Y-137676212D01*
X137991500Y-137753975D01*
X137991500Y-138552887D01*
X138006763Y-138683803D01*
X138066466Y-138848282D01*
X138162407Y-138994615D01*
X138289438Y-139114953D01*
X138440745Y-139202839D01*
X138454589Y-139207032D01*
X138595375Y-139249672D01*
X138608212Y-139253560D01*
X138646364Y-139256965D01*
X138680458Y-139260008D01*
X138680466Y-139260008D01*
X138685975Y-139260500D01*
X139684887Y-139260500D01*
X139710928Y-139257464D01*
X139777766Y-139249672D01*
X139874608Y-139257464D01*
X139961096Y-139301723D01*
X140024064Y-139375711D01*
X140053925Y-139468163D01*
X140055600Y-139496997D01*
X140055600Y-141001871D01*
X140036646Y-141097159D01*
X139982670Y-141177941D01*
X139094041Y-142066570D01*
X139013259Y-142120546D01*
X138917971Y-142139500D01*
X138699113Y-142139500D01*
X138568197Y-142154763D01*
X138554600Y-142159699D01*
X138554598Y-142159699D01*
X138466217Y-142191780D01*
X138403718Y-142214466D01*
X138257385Y-142310407D01*
X138247439Y-142320906D01*
X138247438Y-142320907D01*
X138220192Y-142349669D01*
X138137047Y-142437438D01*
X138049161Y-142588745D01*
X137998440Y-142756212D01*
X137991500Y-142833975D01*
X137991500Y-142919990D01*
X137972546Y-143015278D01*
X137918375Y-143093951D01*
X137918747Y-143094272D01*
X137915818Y-143097665D01*
X137913588Y-143100904D01*
X137910509Y-143103816D01*
X137901341Y-143112486D01*
X137894106Y-143122819D01*
X137894104Y-143122821D01*
X137869335Y-143158194D01*
X137858330Y-143172745D01*
X137831033Y-143206216D01*
X137823060Y-143215992D01*
X137817219Y-143227164D01*
X137817216Y-143227169D01*
X137813412Y-143234446D01*
X137796720Y-143261900D01*
X137784777Y-143278957D01*
X137779766Y-143290537D01*
X137762617Y-143330166D01*
X137754760Y-143346638D01*
X137728907Y-143396090D01*
X137725431Y-143408214D01*
X137723169Y-143416102D01*
X137712334Y-143446362D01*
X137709075Y-143453892D01*
X137709072Y-143453900D01*
X137704067Y-143465467D01*
X137701489Y-143477809D01*
X137701488Y-143477811D01*
X137692657Y-143520083D01*
X137688277Y-143537784D01*
X137672891Y-143591441D01*
X137671924Y-143604013D01*
X137671293Y-143612207D01*
X137666765Y-143644018D01*
X137662508Y-143664397D01*
X137662000Y-143674091D01*
X137662000Y-143723420D01*
X137661266Y-143742523D01*
X137657300Y-143794067D01*
X137658881Y-143806580D01*
X137658881Y-143806589D01*
X137660036Y-143815731D01*
X137662000Y-143846940D01*
X137662000Y-145054500D01*
X137643046Y-145149788D01*
X137589070Y-145230570D01*
X137508288Y-145284546D01*
X137413000Y-145303500D01*
X135035961Y-145303500D01*
X134940673Y-145284546D01*
X134859891Y-145230570D01*
X134489730Y-144860409D01*
X134435754Y-144779627D01*
X134416800Y-144684339D01*
X134416800Y-143470447D01*
X134435754Y-143375159D01*
X134489730Y-143294377D01*
X134509605Y-143276529D01*
X134560934Y-143235185D01*
X134568295Y-143229256D01*
X134574671Y-143222286D01*
X134574676Y-143222281D01*
X134736535Y-143045333D01*
X134742918Y-143038355D01*
X134886655Y-142823236D01*
X134996200Y-142588851D01*
X135069031Y-142340593D01*
X135073086Y-142310407D01*
X135094216Y-142153088D01*
X135103472Y-142084175D01*
X135106300Y-141986000D01*
X135086676Y-141728025D01*
X135028257Y-141475986D01*
X134932386Y-141235684D01*
X134801270Y-141012648D01*
X134637926Y-140812011D01*
X134498703Y-140685993D01*
X134440777Y-140607995D01*
X134417108Y-140513767D01*
X134416800Y-140501386D01*
X134416800Y-136882196D01*
X134435754Y-136786908D01*
X134489730Y-136706127D01*
X134826525Y-136369331D01*
X134907306Y-136315354D01*
X135002595Y-136296400D01*
X137742500Y-136296400D01*
X137837788Y-136315354D01*
G37*
%TD.AperFunction*%
%TD*%
%TA.AperFunction,Conductor*%
%TO.N,Net-(D2-Pad2)*%
G36*
X114298688Y-143020954D02*
G01*
X114379470Y-143074930D01*
X114433446Y-143155712D01*
X114452400Y-143251000D01*
X114452400Y-144589800D01*
X114433446Y-144685088D01*
X114379470Y-144765870D01*
X114298688Y-144819846D01*
X114203400Y-144838800D01*
X114046470Y-144838800D01*
X114041078Y-144839271D01*
X114041068Y-144839271D01*
X113965278Y-144845885D01*
X113965268Y-144845886D01*
X113959863Y-144846358D01*
X113954517Y-144847298D01*
X113954511Y-144847299D01*
X113880237Y-144860362D01*
X113874904Y-144861300D01*
X113869682Y-144862696D01*
X113869671Y-144862698D01*
X113810171Y-144878599D01*
X113774724Y-144885365D01*
X113762212Y-144886824D01*
X113733372Y-144888500D01*
X112834064Y-144888500D01*
X112761888Y-144877810D01*
X112743653Y-144872287D01*
X112743640Y-144872284D01*
X112739260Y-144870957D01*
X112734786Y-144869954D01*
X112734779Y-144869952D01*
X112696190Y-144861300D01*
X112667580Y-144854885D01*
X112623842Y-144848407D01*
X112599936Y-144844866D01*
X112599926Y-144844865D01*
X112595403Y-144844195D01*
X112590830Y-144843858D01*
X112590828Y-144843858D01*
X112580170Y-144843073D01*
X112522148Y-144838800D01*
X112415400Y-144838800D01*
X112409319Y-144839399D01*
X112409317Y-144839399D01*
X112366628Y-144843603D01*
X112317855Y-144848407D01*
X112311872Y-144849597D01*
X112311866Y-144849598D01*
X112225804Y-144866717D01*
X112225800Y-144866718D01*
X112222567Y-144867361D01*
X112170708Y-144880597D01*
X112042330Y-144942017D01*
X112034937Y-144946957D01*
X111964307Y-144994149D01*
X111964294Y-144994158D01*
X111961548Y-144995993D01*
X111958894Y-144997980D01*
X111958888Y-144997984D01*
X111928482Y-145020745D01*
X111928477Y-145020750D01*
X111918694Y-145028073D01*
X111823593Y-145133948D01*
X111769617Y-145214730D01*
X111742307Y-145260758D01*
X111738240Y-145272287D01*
X111738238Y-145272291D01*
X111697915Y-145386592D01*
X111697913Y-145386599D01*
X111694961Y-145394967D01*
X111693229Y-145403675D01*
X111678835Y-145476040D01*
X111676007Y-145490255D01*
X111666400Y-145587800D01*
X111666400Y-145597800D01*
X111666146Y-145599075D01*
X111666100Y-145600018D01*
X111665960Y-145600011D01*
X111647446Y-145693088D01*
X111593470Y-145773870D01*
X111512688Y-145827846D01*
X111417400Y-145846800D01*
X110027800Y-145846800D01*
X109932512Y-145827846D01*
X109851730Y-145773870D01*
X109797754Y-145693088D01*
X109778800Y-145597800D01*
X109778800Y-143251000D01*
X109797754Y-143155712D01*
X109851730Y-143074930D01*
X109932512Y-143020954D01*
X110027800Y-143002000D01*
X114203400Y-143002000D01*
X114298688Y-143020954D01*
G37*
%TD.AperFunction*%
%TD*%
%TA.AperFunction,Conductor*%
%TO.N,Net-(R1-Pad2)*%
G36*
X152005621Y-143833754D02*
G01*
X152048667Y-143856762D01*
X152123530Y-143906783D01*
X152169558Y-143934093D01*
X152181087Y-143938160D01*
X152181091Y-143938162D01*
X152295392Y-143978485D01*
X152295399Y-143978487D01*
X152303767Y-143981439D01*
X152337821Y-143988213D01*
X152393066Y-143999202D01*
X152393072Y-143999203D01*
X152399055Y-144000393D01*
X152447828Y-144005197D01*
X152490517Y-144009401D01*
X152490519Y-144009401D01*
X152496600Y-144010000D01*
X154335400Y-144010000D01*
X154430688Y-144028954D01*
X154511470Y-144082930D01*
X154565446Y-144163712D01*
X154584400Y-144259000D01*
X154584400Y-146410600D01*
X154565446Y-146505888D01*
X154511470Y-146586670D01*
X154430688Y-146640646D01*
X154335400Y-146659600D01*
X149601000Y-146659600D01*
X149505712Y-146640646D01*
X149424930Y-146586670D01*
X149370954Y-146505888D01*
X149352000Y-146410600D01*
X149352000Y-144208200D01*
X149370954Y-144112912D01*
X149424930Y-144032130D01*
X149505712Y-143978154D01*
X149601000Y-143959200D01*
X151135000Y-143959200D01*
X151141081Y-143958601D01*
X151141083Y-143958601D01*
X151183773Y-143954396D01*
X151232545Y-143949593D01*
X151238528Y-143948403D01*
X151238534Y-143948402D01*
X151324596Y-143931283D01*
X151324600Y-143931282D01*
X151327833Y-143930639D01*
X151379692Y-143917403D01*
X151508070Y-143855983D01*
X151515461Y-143851044D01*
X151521819Y-143847424D01*
X151614002Y-143816741D01*
X151645035Y-143814800D01*
X151910333Y-143814800D01*
X152005621Y-143833754D01*
G37*
%TD.AperFunction*%
%TD*%
%TA.AperFunction,Conductor*%
%TO.N,/DAT0_snif*%
G36*
X130827491Y-139515754D02*
G01*
X130908273Y-139569730D01*
X131410556Y-140072013D01*
X131422124Y-140084397D01*
X131455528Y-140122689D01*
X131467809Y-140131320D01*
X131467813Y-140131324D01*
X131504535Y-140157133D01*
X131514994Y-140164900D01*
X131550317Y-140192596D01*
X131550322Y-140192599D01*
X131562132Y-140201859D01*
X131575814Y-140208037D01*
X131576889Y-140208688D01*
X131578785Y-140209927D01*
X131580790Y-140210915D01*
X131581930Y-140211526D01*
X131594215Y-140220160D01*
X131608201Y-140225613D01*
X131608207Y-140225616D01*
X131650033Y-140241923D01*
X131662045Y-140246971D01*
X131716626Y-140271616D01*
X131731387Y-140274352D01*
X131732602Y-140274733D01*
X131734729Y-140275480D01*
X131736908Y-140275961D01*
X131738167Y-140276284D01*
X131752149Y-140281735D01*
X131811533Y-140289553D01*
X131824406Y-140291593D01*
X131868537Y-140299772D01*
X131868541Y-140299772D01*
X131883302Y-140302508D01*
X131898288Y-140301644D01*
X131898290Y-140301644D01*
X131938712Y-140299313D01*
X131953046Y-140298900D01*
X132082071Y-140298900D01*
X132177359Y-140317854D01*
X132258141Y-140371830D01*
X132312117Y-140452612D01*
X132331071Y-140547900D01*
X132312117Y-140643188D01*
X132257680Y-140724429D01*
X132109745Y-140871591D01*
X131956034Y-141079700D01*
X131835569Y-141308664D01*
X131832485Y-141317596D01*
X131832483Y-141317600D01*
X131762557Y-141520110D01*
X131751125Y-141553216D01*
X131704643Y-141807727D01*
X131697193Y-142066340D01*
X131698353Y-142075718D01*
X131698353Y-142075722D01*
X131727787Y-142313719D01*
X131728948Y-142323105D01*
X131799175Y-142572112D01*
X131906259Y-142807631D01*
X131951527Y-142876940D01*
X131987764Y-142967081D01*
X131986747Y-143064231D01*
X131948629Y-143153596D01*
X131879215Y-143221572D01*
X131789071Y-143257810D01*
X131743053Y-143262099D01*
X127147400Y-143262099D01*
X127052112Y-143243145D01*
X126971330Y-143189169D01*
X126917354Y-143108387D01*
X126898400Y-143013099D01*
X126898400Y-140132085D01*
X126917354Y-140036797D01*
X126971330Y-139956015D01*
X127052112Y-139902039D01*
X127147400Y-139883085D01*
X127242688Y-139902039D01*
X127323470Y-139956015D01*
X127355873Y-139995924D01*
X127461165Y-140157133D01*
X127475736Y-140179443D01*
X127482048Y-140186491D01*
X127482051Y-140186494D01*
X127614242Y-140334081D01*
X127648350Y-140372162D01*
X127848129Y-140536554D01*
X127856253Y-140541387D01*
X128062344Y-140663999D01*
X128062348Y-140664001D01*
X128070475Y-140668836D01*
X128310272Y-140765964D01*
X128319464Y-140768145D01*
X128319466Y-140768146D01*
X128436136Y-140795833D01*
X128562001Y-140825702D01*
X128571419Y-140826468D01*
X128571425Y-140826469D01*
X128810434Y-140845910D01*
X128810441Y-140845910D01*
X128819870Y-140846677D01*
X129077945Y-140828404D01*
X129087170Y-140826317D01*
X129087174Y-140826316D01*
X129321067Y-140773391D01*
X129321066Y-140773391D01*
X129330286Y-140771305D01*
X129571087Y-140676694D01*
X129794806Y-140546747D01*
X129996295Y-140384456D01*
X130002671Y-140377486D01*
X130002676Y-140377481D01*
X130164535Y-140200533D01*
X130170918Y-140193555D01*
X130314655Y-139978436D01*
X130424200Y-139744051D01*
X130444251Y-139675704D01*
X130489263Y-139589605D01*
X130563797Y-139527286D01*
X130656507Y-139498233D01*
X130683181Y-139496800D01*
X130732203Y-139496800D01*
X130827491Y-139515754D01*
G37*
%TD.AperFunction*%
%TD*%
%TA.AperFunction,Conductor*%
%TO.N,GNDD*%
G36*
X151746288Y-116223954D02*
G01*
X151827070Y-116277930D01*
X151881046Y-116358712D01*
X151900000Y-116454000D01*
X151900000Y-117106108D01*
X151881046Y-117201396D01*
X151827070Y-117282178D01*
X151746288Y-117336154D01*
X151651000Y-117355108D01*
X151582160Y-117345403D01*
X151475854Y-117314819D01*
X151466469Y-117313608D01*
X151466467Y-117313608D01*
X151228642Y-117282931D01*
X151228638Y-117282931D01*
X151219259Y-117281721D01*
X151151507Y-117283318D01*
X150970057Y-117287594D01*
X150970052Y-117287594D01*
X150960610Y-117287817D01*
X150705859Y-117332965D01*
X150460869Y-117416128D01*
X150452480Y-117420486D01*
X150452477Y-117420487D01*
X150362434Y-117467261D01*
X150231277Y-117535392D01*
X150022366Y-117688012D01*
X149838945Y-117870475D01*
X149833328Y-117878080D01*
X149833321Y-117878088D01*
X149755597Y-117983319D01*
X149683738Y-118048706D01*
X149592327Y-118081617D01*
X149555307Y-118084384D01*
X149078798Y-118084384D01*
X149061400Y-118083015D01*
X149061382Y-118083349D01*
X149048356Y-118082666D01*
X149035463Y-118080624D01*
X149022430Y-118081307D01*
X149022429Y-118081307D01*
X148970230Y-118084043D01*
X148957197Y-118084384D01*
X148940501Y-118084384D01*
X148934017Y-118085066D01*
X148934008Y-118085066D01*
X148923885Y-118086130D01*
X148910892Y-118087153D01*
X148859451Y-118089849D01*
X148859450Y-118089849D01*
X148846422Y-118090532D01*
X148833823Y-118093908D01*
X148823254Y-118095582D01*
X148812784Y-118097807D01*
X148799810Y-118099171D01*
X148756308Y-118113306D01*
X148738429Y-118119115D01*
X148725930Y-118122817D01*
X148676175Y-118136149D01*
X148676168Y-118136152D01*
X148663571Y-118139527D01*
X148651947Y-118145450D01*
X148641987Y-118149273D01*
X148632189Y-118153635D01*
X148619774Y-118157669D01*
X148608475Y-118164193D01*
X148608467Y-118164196D01*
X148563889Y-118189933D01*
X148552441Y-118196150D01*
X148494902Y-118225467D01*
X148484762Y-118233678D01*
X148475811Y-118239491D01*
X148467135Y-118245794D01*
X148455834Y-118252319D01*
X148446141Y-118261047D01*
X148446135Y-118261051D01*
X148407867Y-118295508D01*
X148397970Y-118303962D01*
X148384963Y-118314495D01*
X148373138Y-118326320D01*
X148363683Y-118335292D01*
X148315156Y-118378986D01*
X148307485Y-118389545D01*
X148298755Y-118399240D01*
X148298506Y-118399016D01*
X148287177Y-118412281D01*
X146718373Y-119981086D01*
X146718368Y-119981090D01*
X146718359Y-119981099D01*
X144207397Y-122492060D01*
X144194132Y-122503389D01*
X144194356Y-122503638D01*
X144184661Y-122512368D01*
X144174102Y-122520039D01*
X144165370Y-122529737D01*
X144130409Y-122568565D01*
X144121436Y-122578021D01*
X144109611Y-122589846D01*
X144105515Y-122594905D01*
X144105508Y-122594912D01*
X144099086Y-122602843D01*
X144090620Y-122612755D01*
X144047435Y-122660717D01*
X144040911Y-122672017D01*
X144034629Y-122680663D01*
X144028797Y-122689643D01*
X144020584Y-122699786D01*
X143999032Y-122742084D01*
X143991284Y-122757291D01*
X143985063Y-122768748D01*
X143973725Y-122788387D01*
X143952785Y-122824657D01*
X143948751Y-122837073D01*
X143944403Y-122846839D01*
X143940572Y-122856819D01*
X143934643Y-122868455D01*
X143920205Y-122922338D01*
X143917937Y-122930802D01*
X143914240Y-122943283D01*
X143894287Y-123004693D01*
X143892923Y-123017673D01*
X143890702Y-123028122D01*
X143889027Y-123038696D01*
X143885648Y-123051306D01*
X143884965Y-123064341D01*
X143882270Y-123115762D01*
X143881247Y-123128754D01*
X143880182Y-123138885D01*
X143880181Y-123138907D01*
X143879500Y-123145384D01*
X143879500Y-123162095D01*
X143879159Y-123175126D01*
X143875741Y-123240347D01*
X143877782Y-123253234D01*
X143878465Y-123266268D01*
X143878131Y-123266285D01*
X143879500Y-123283680D01*
X143879500Y-124181376D01*
X143860830Y-124271140D01*
X143861124Y-124271229D01*
X143860688Y-124272670D01*
X143856931Y-124285074D01*
X143856930Y-124285076D01*
X143848721Y-124312182D01*
X143811243Y-124435926D01*
X143810107Y-124448650D01*
X143810107Y-124448652D01*
X143805073Y-124505063D01*
X143804500Y-124511478D01*
X143804500Y-125185386D01*
X143810719Y-125238726D01*
X143817598Y-125297727D01*
X143819428Y-125313427D01*
X143824361Y-125327018D01*
X143824362Y-125327021D01*
X143838174Y-125365072D01*
X143878143Y-125475185D01*
X143886076Y-125487284D01*
X143886076Y-125487285D01*
X143954655Y-125591885D01*
X143991050Y-125681965D01*
X143990202Y-125779117D01*
X143953062Y-125866614D01*
X143947557Y-125872425D01*
X143861124Y-126021229D01*
X143856931Y-126035074D01*
X143856930Y-126035076D01*
X143851039Y-126054526D01*
X143824337Y-126142694D01*
X143818312Y-126162586D01*
X143772551Y-126248289D01*
X143697477Y-126309957D01*
X143604518Y-126338200D01*
X143507826Y-126328720D01*
X143496022Y-126325145D01*
X143496019Y-126325144D01*
X143483788Y-126321440D01*
X143445636Y-126318035D01*
X143411542Y-126314992D01*
X143411534Y-126314992D01*
X143406025Y-126314500D01*
X142357113Y-126314500D01*
X142226197Y-126329763D01*
X142212600Y-126334699D01*
X142212598Y-126334699D01*
X142170745Y-126349891D01*
X142061718Y-126389466D01*
X141915385Y-126485407D01*
X141905439Y-126495906D01*
X141905438Y-126495907D01*
X141812421Y-126594098D01*
X141795047Y-126612438D01*
X141707161Y-126763745D01*
X141702968Y-126777589D01*
X141693107Y-126810149D01*
X141656440Y-126931212D01*
X141649500Y-127008975D01*
X141649500Y-127782887D01*
X141664763Y-127913803D01*
X141669699Y-127927400D01*
X141669699Y-127927402D01*
X141691435Y-127987284D01*
X141724466Y-128078282D01*
X141820407Y-128224615D01*
X141830906Y-128234561D01*
X141830907Y-128234562D01*
X141931264Y-128329631D01*
X141947438Y-128344953D01*
X142098745Y-128432839D01*
X142266212Y-128483560D01*
X142304364Y-128486965D01*
X142338458Y-128490008D01*
X142338466Y-128490008D01*
X142343975Y-128490500D01*
X142651658Y-128490500D01*
X142746946Y-128509454D01*
X142764701Y-128517639D01*
X142766854Y-128518736D01*
X142778311Y-128524957D01*
X142822916Y-128550709D01*
X142822919Y-128550710D01*
X142834220Y-128557235D01*
X142846636Y-128561269D01*
X142856402Y-128565617D01*
X142866382Y-128569448D01*
X142878018Y-128575377D01*
X142940370Y-128592085D01*
X142952846Y-128595780D01*
X143014256Y-128615733D01*
X143027236Y-128617097D01*
X143037685Y-128619318D01*
X143048259Y-128620993D01*
X143060869Y-128624372D01*
X143082032Y-128625481D01*
X143125325Y-128627750D01*
X143138317Y-128628773D01*
X143148448Y-128629838D01*
X143148470Y-128629839D01*
X143154947Y-128630520D01*
X143171658Y-128630520D01*
X143184689Y-128630861D01*
X143249910Y-128634279D01*
X143262797Y-128632238D01*
X143275831Y-128631555D01*
X143275848Y-128631889D01*
X143293243Y-128630520D01*
X144297481Y-128630520D01*
X144392769Y-128649474D01*
X144473551Y-128703450D01*
X145247702Y-129477601D01*
X145259033Y-129490868D01*
X145259282Y-129490644D01*
X145268007Y-129500335D01*
X145275682Y-129510898D01*
X145285384Y-129519634D01*
X145285387Y-129519637D01*
X145324217Y-129554600D01*
X145333674Y-129563573D01*
X145345490Y-129575389D01*
X145350557Y-129579492D01*
X145358471Y-129585901D01*
X145368380Y-129594364D01*
X145406660Y-129628832D01*
X145406665Y-129628836D01*
X145416360Y-129637565D01*
X145427661Y-129644090D01*
X145436318Y-129650379D01*
X145445282Y-129656200D01*
X145455429Y-129664417D01*
X145499254Y-129686747D01*
X145512949Y-129693725D01*
X145524400Y-129699942D01*
X145580300Y-129732215D01*
X145592710Y-129736247D01*
X145602493Y-129740603D01*
X145612472Y-129744433D01*
X145624098Y-129750357D01*
X145686450Y-129767065D01*
X145698926Y-129770760D01*
X145760336Y-129790713D01*
X145773314Y-129792077D01*
X145783759Y-129794297D01*
X145794339Y-129795973D01*
X145806949Y-129799352D01*
X145871423Y-129802731D01*
X145884405Y-129803753D01*
X145901027Y-129805500D01*
X145901029Y-129805500D01*
X145900847Y-129807230D01*
X145984695Y-129828543D01*
X146062529Y-129886689D01*
X146112186Y-129970194D01*
X146126349Y-130060434D01*
X146124393Y-130128340D01*
X146125553Y-130137718D01*
X146125553Y-130137722D01*
X146154987Y-130375719D01*
X146156148Y-130385105D01*
X146226375Y-130634112D01*
X146275385Y-130741903D01*
X146321823Y-130844038D01*
X146333459Y-130869631D01*
X146362214Y-130913657D01*
X146468040Y-131075684D01*
X146474936Y-131086243D01*
X146508550Y-131123772D01*
X146545362Y-131164872D01*
X146594818Y-131248497D01*
X146608507Y-131344683D01*
X146584345Y-131438785D01*
X146526011Y-131516479D01*
X146442386Y-131565935D01*
X146359883Y-131580000D01*
X145638600Y-131580000D01*
X145632519Y-131580599D01*
X145632517Y-131580599D01*
X145603276Y-131583479D01*
X145541055Y-131589607D01*
X145535072Y-131590797D01*
X145535066Y-131590798D01*
X145449004Y-131607917D01*
X145449000Y-131607918D01*
X145445767Y-131608561D01*
X145393908Y-131621797D01*
X145265530Y-131683217D01*
X145258137Y-131688157D01*
X145187507Y-131735349D01*
X145187494Y-131735358D01*
X145184748Y-131737193D01*
X145182094Y-131739180D01*
X145182088Y-131739184D01*
X145151682Y-131761945D01*
X145151677Y-131761950D01*
X145141894Y-131769273D01*
X145046793Y-131875148D01*
X144992817Y-131955930D01*
X144965507Y-132001958D01*
X144961440Y-132013487D01*
X144961438Y-132013491D01*
X144921115Y-132127792D01*
X144921113Y-132127799D01*
X144918161Y-132136167D01*
X144916429Y-132144875D01*
X144902391Y-132215450D01*
X144899207Y-132231455D01*
X144889600Y-132329000D01*
X144889600Y-136614200D01*
X144870646Y-136709488D01*
X144816670Y-136790270D01*
X144735888Y-136844246D01*
X144640600Y-136863200D01*
X144317800Y-136863200D01*
X144311719Y-136863799D01*
X144311717Y-136863799D01*
X144269027Y-136868004D01*
X144220255Y-136872807D01*
X144214272Y-136873997D01*
X144214266Y-136873998D01*
X144128204Y-136891117D01*
X144128200Y-136891118D01*
X144124967Y-136891761D01*
X144073108Y-136904997D01*
X143944730Y-136966417D01*
X143937337Y-136971357D01*
X143866707Y-137018549D01*
X143866694Y-137018558D01*
X143863948Y-137020393D01*
X143861294Y-137022380D01*
X143861288Y-137022384D01*
X143830882Y-137045145D01*
X143830877Y-137045150D01*
X143821094Y-137052473D01*
X143725993Y-137158348D01*
X143672017Y-137239130D01*
X143644707Y-137285158D01*
X143640640Y-137296687D01*
X143640638Y-137296691D01*
X143600315Y-137410992D01*
X143600313Y-137410999D01*
X143597361Y-137419367D01*
X143578407Y-137514655D01*
X143568800Y-137612200D01*
X143568800Y-139505931D01*
X143570790Y-139550492D01*
X143571036Y-139553245D01*
X143571037Y-139553255D01*
X143573717Y-139583199D01*
X143574746Y-139594704D01*
X143607477Y-139733214D01*
X143643049Y-139823621D01*
X143645840Y-139829074D01*
X143684158Y-139903947D01*
X143710697Y-139997407D01*
X143711500Y-140017387D01*
X143711500Y-140745560D01*
X143712799Y-140760077D01*
X143718708Y-140826098D01*
X143719445Y-140834338D01*
X143723220Y-140855263D01*
X143734611Y-140918394D01*
X143735145Y-140921356D01*
X143745016Y-140964861D01*
X143749677Y-140975568D01*
X143749679Y-140975575D01*
X143779807Y-141044787D01*
X143800500Y-141144169D01*
X143800500Y-141240000D01*
X143800817Y-141244426D01*
X143800817Y-141244439D01*
X143802236Y-141264273D01*
X143805645Y-141311940D01*
X143846181Y-141449992D01*
X143855810Y-141464975D01*
X143894759Y-141525580D01*
X143923969Y-141571032D01*
X143993936Y-141631659D01*
X144032706Y-141665254D01*
X144031225Y-141666963D01*
X144083533Y-141717435D01*
X144122309Y-141806517D01*
X144128000Y-141859447D01*
X144128000Y-143210200D01*
X144137607Y-143307745D01*
X144156561Y-143403033D01*
X144169797Y-143454892D01*
X144231217Y-143583270D01*
X144236157Y-143590663D01*
X144283349Y-143661293D01*
X144283358Y-143661306D01*
X144285193Y-143664052D01*
X144287180Y-143666706D01*
X144287184Y-143666712D01*
X144309945Y-143697118D01*
X144309950Y-143697123D01*
X144317273Y-143706906D01*
X144423148Y-143802007D01*
X144488177Y-143845457D01*
X144499177Y-143852807D01*
X144503930Y-143855983D01*
X144549958Y-143883293D01*
X144561487Y-143887360D01*
X144561491Y-143887362D01*
X144675792Y-143927685D01*
X144675799Y-143927687D01*
X144684167Y-143930639D01*
X144718221Y-143937413D01*
X144773466Y-143948402D01*
X144773472Y-143948403D01*
X144779455Y-143949593D01*
X144828227Y-143954396D01*
X144870917Y-143958601D01*
X144870919Y-143958601D01*
X144877000Y-143959200D01*
X148603000Y-143959200D01*
X148698288Y-143978154D01*
X148779070Y-144032130D01*
X148833046Y-144112912D01*
X148852000Y-144208200D01*
X148852000Y-146410600D01*
X148861607Y-146508145D01*
X148880561Y-146603433D01*
X148893797Y-146655292D01*
X148955217Y-146783670D01*
X148960157Y-146791063D01*
X149007349Y-146861693D01*
X149007358Y-146861706D01*
X149009193Y-146864452D01*
X149011180Y-146867106D01*
X149011184Y-146867112D01*
X149033945Y-146897518D01*
X149033950Y-146897523D01*
X149041273Y-146907306D01*
X149147148Y-147002407D01*
X149212177Y-147045857D01*
X149220537Y-147051443D01*
X149227930Y-147056383D01*
X149230805Y-147058089D01*
X149230810Y-147058092D01*
X149237853Y-147062270D01*
X149273958Y-147083693D01*
X149285487Y-147087760D01*
X149285491Y-147087762D01*
X149399792Y-147128085D01*
X149399799Y-147128087D01*
X149408167Y-147131039D01*
X149430428Y-147135467D01*
X149497466Y-147148802D01*
X149497472Y-147148803D01*
X149503455Y-147149993D01*
X149552227Y-147154796D01*
X149594917Y-147159001D01*
X149594919Y-147159001D01*
X149601000Y-147159600D01*
X154335400Y-147159600D01*
X154341481Y-147159001D01*
X154341483Y-147159001D01*
X154384173Y-147154796D01*
X154432945Y-147149993D01*
X154438928Y-147148803D01*
X154438934Y-147148802D01*
X154524996Y-147131683D01*
X154525000Y-147131682D01*
X154528233Y-147131039D01*
X154580092Y-147117803D01*
X154708470Y-147056383D01*
X154737391Y-147037059D01*
X154786493Y-147004251D01*
X154786506Y-147004242D01*
X154789252Y-147002407D01*
X154797190Y-146996465D01*
X154822318Y-146977655D01*
X154822323Y-146977650D01*
X154832106Y-146970327D01*
X154927207Y-146864452D01*
X154981183Y-146783670D01*
X155008493Y-146737642D01*
X155033653Y-146666323D01*
X155052885Y-146611808D01*
X155052887Y-146611801D01*
X155055839Y-146603433D01*
X155074793Y-146508145D01*
X155084400Y-146410600D01*
X155084400Y-144259000D01*
X155103354Y-144163712D01*
X155157330Y-144082930D01*
X155238112Y-144028954D01*
X155333400Y-144010000D01*
X157434200Y-144010000D01*
X157440281Y-144009401D01*
X157440283Y-144009401D01*
X157482972Y-144005197D01*
X157531745Y-144000393D01*
X157537728Y-143999203D01*
X157537734Y-143999202D01*
X157623796Y-143982083D01*
X157623800Y-143982082D01*
X157627033Y-143981439D01*
X157678892Y-143968203D01*
X157807270Y-143906783D01*
X157851768Y-143877051D01*
X157885293Y-143854651D01*
X157885306Y-143854642D01*
X157888052Y-143852807D01*
X157890712Y-143850816D01*
X157921118Y-143828055D01*
X157921123Y-143828050D01*
X157930906Y-143820727D01*
X158026007Y-143714852D01*
X158079983Y-143634070D01*
X158107293Y-143588042D01*
X158111362Y-143576509D01*
X158151685Y-143462208D01*
X158151687Y-143462201D01*
X158154639Y-143453833D01*
X158173593Y-143358545D01*
X158183200Y-143261000D01*
X158183200Y-141015800D01*
X158173593Y-140918255D01*
X158172164Y-140911067D01*
X158155283Y-140826204D01*
X158155282Y-140826200D01*
X158154639Y-140822967D01*
X158141403Y-140771108D01*
X158079983Y-140642730D01*
X158046269Y-140592273D01*
X158027851Y-140564707D01*
X158027842Y-140564694D01*
X158026007Y-140561948D01*
X158019472Y-140553218D01*
X158001255Y-140528882D01*
X158001250Y-140528877D01*
X157993927Y-140519094D01*
X157888052Y-140423993D01*
X157807270Y-140370017D01*
X157804102Y-140368137D01*
X157782073Y-140355067D01*
X157761242Y-140342707D01*
X157749713Y-140338640D01*
X157749709Y-140338638D01*
X157635408Y-140298315D01*
X157635401Y-140298313D01*
X157627033Y-140295361D01*
X157591505Y-140288294D01*
X157537734Y-140277598D01*
X157537728Y-140277597D01*
X157531745Y-140276407D01*
X157482972Y-140271603D01*
X157440283Y-140267399D01*
X157440281Y-140267399D01*
X157434200Y-140266800D01*
X153702455Y-140266800D01*
X153700932Y-140266838D01*
X153700897Y-140266838D01*
X153679387Y-140267369D01*
X153679385Y-140267369D01*
X153677807Y-140267408D01*
X153653291Y-140268618D01*
X153532588Y-140289603D01*
X153525277Y-140291824D01*
X153525278Y-140291824D01*
X153442794Y-140316884D01*
X153442780Y-140316889D01*
X153439629Y-140317846D01*
X153389317Y-140336127D01*
X153378856Y-140342467D01*
X153378854Y-140342468D01*
X153341867Y-140364885D01*
X153267610Y-140409890D01*
X153192536Y-140471558D01*
X153190076Y-140473810D01*
X153162075Y-140499439D01*
X153162072Y-140499442D01*
X153153058Y-140507693D01*
X153145823Y-140517549D01*
X153145822Y-140517550D01*
X153128473Y-140541184D01*
X153068842Y-140622416D01*
X153023081Y-140708119D01*
X153002426Y-140758047D01*
X152987656Y-140787915D01*
X152986444Y-140790002D01*
X152975452Y-140808925D01*
X152940982Y-140855020D01*
X152940752Y-140855263D01*
X152896795Y-140892097D01*
X152896523Y-140892276D01*
X152844435Y-140918393D01*
X152844121Y-140918507D01*
X152788136Y-140931717D01*
X152787449Y-140931797D01*
X152787182Y-140931828D01*
X152758375Y-140933500D01*
X152496600Y-140933500D01*
X152490519Y-140934099D01*
X152490517Y-140934099D01*
X152447827Y-140938304D01*
X152399055Y-140943107D01*
X152393072Y-140944297D01*
X152393066Y-140944298D01*
X152307004Y-140961417D01*
X152307000Y-140961418D01*
X152303767Y-140962061D01*
X152251908Y-140975297D01*
X152240876Y-140980575D01*
X152211348Y-140994702D01*
X152117211Y-141018728D01*
X152021045Y-141004901D01*
X151937490Y-140955325D01*
X151879268Y-140877548D01*
X151861536Y-140826098D01*
X151861500Y-140826107D01*
X151861366Y-140825606D01*
X151861365Y-140825604D01*
X151856539Y-140807544D01*
X151843237Y-140757768D01*
X151836471Y-140722320D01*
X151835176Y-140711214D01*
X151833500Y-140682375D01*
X151833500Y-139733064D01*
X151844191Y-139660886D01*
X151850518Y-139639998D01*
X151850526Y-139639968D01*
X151851844Y-139635616D01*
X151867915Y-139563939D01*
X151876311Y-139507254D01*
X151877934Y-139496295D01*
X151877935Y-139496285D01*
X151878605Y-139491762D01*
X151884000Y-139418507D01*
X151884000Y-138975800D01*
X151902954Y-138880512D01*
X151956930Y-138799730D01*
X152037712Y-138745754D01*
X152133000Y-138726800D01*
X154691000Y-138726800D01*
X154697081Y-138726201D01*
X154697083Y-138726201D01*
X154739773Y-138721996D01*
X154788545Y-138717193D01*
X154794528Y-138716003D01*
X154794534Y-138716002D01*
X154880596Y-138698883D01*
X154880600Y-138698882D01*
X154883833Y-138698239D01*
X154935692Y-138685003D01*
X155064070Y-138623583D01*
X155100003Y-138599574D01*
X155142093Y-138571451D01*
X155142106Y-138571442D01*
X155144852Y-138569607D01*
X155149637Y-138566025D01*
X155177918Y-138544855D01*
X155177923Y-138544850D01*
X155187706Y-138537527D01*
X155282807Y-138431652D01*
X155336783Y-138350870D01*
X155364093Y-138304842D01*
X155368162Y-138293309D01*
X155408485Y-138179008D01*
X155408487Y-138179001D01*
X155411439Y-138170633D01*
X155430393Y-138075345D01*
X155440000Y-137977800D01*
X155440000Y-135580200D01*
X155437148Y-135551237D01*
X155435197Y-135531428D01*
X155430393Y-135482655D01*
X155418920Y-135424973D01*
X155412083Y-135390604D01*
X155412082Y-135390600D01*
X155411439Y-135387367D01*
X155398203Y-135335508D01*
X155336783Y-135207130D01*
X155297810Y-135148802D01*
X155284651Y-135129107D01*
X155284642Y-135129094D01*
X155282807Y-135126348D01*
X155276000Y-135117255D01*
X155258055Y-135093282D01*
X155258050Y-135093277D01*
X155250727Y-135083494D01*
X155144852Y-134988393D01*
X155064070Y-134934417D01*
X155018042Y-134907107D01*
X155006513Y-134903040D01*
X155006509Y-134903038D01*
X154892208Y-134862715D01*
X154892201Y-134862713D01*
X154883833Y-134859761D01*
X154849779Y-134852987D01*
X154794534Y-134841998D01*
X154794528Y-134841997D01*
X154788545Y-134840807D01*
X154739773Y-134836004D01*
X154697083Y-134831799D01*
X154697081Y-134831799D01*
X154691000Y-134831200D01*
X153113260Y-134831200D01*
X153017972Y-134812246D01*
X152937190Y-134758269D01*
X151956930Y-133778008D01*
X151902954Y-133697227D01*
X151884000Y-133601939D01*
X151884000Y-131844823D01*
X151883014Y-131835005D01*
X151874630Y-131751560D01*
X151874629Y-131751551D01*
X151874006Y-131745354D01*
X151866148Y-131706643D01*
X151854988Y-131651665D01*
X151854985Y-131651651D01*
X151854297Y-131648263D01*
X151846585Y-131618773D01*
X151843385Y-131606535D01*
X151843384Y-131606531D01*
X151840259Y-131594583D01*
X151827911Y-131569285D01*
X151781732Y-131474681D01*
X151777832Y-131466691D01*
X151761973Y-131443354D01*
X151725106Y-131389107D01*
X151723223Y-131386336D01*
X151721207Y-131383687D01*
X151721198Y-131383674D01*
X151698221Y-131353478D01*
X151690813Y-131343742D01*
X151584196Y-131249475D01*
X151576764Y-131244593D01*
X151508096Y-131199486D01*
X151508095Y-131199485D01*
X151502993Y-131196134D01*
X151497595Y-131193303D01*
X151497590Y-131193300D01*
X151421605Y-131153449D01*
X151421604Y-131153449D01*
X151416186Y-131150607D01*
X151374187Y-131133596D01*
X151340368Y-131116808D01*
X151215934Y-131042777D01*
X151185035Y-131021061D01*
X151073247Y-130929074D01*
X151045985Y-130902930D01*
X151011722Y-130864677D01*
X151011690Y-130864642D01*
X151011177Y-130864069D01*
X151008371Y-130861021D01*
X151002479Y-130854621D01*
X151002428Y-130854567D01*
X151001877Y-130853968D01*
X150992479Y-130844038D01*
X150948901Y-130807260D01*
X150888307Y-130731318D01*
X150861387Y-130637967D01*
X150860500Y-130616973D01*
X150860500Y-126696776D01*
X150855824Y-126650735D01*
X150847836Y-126572103D01*
X150844963Y-126543816D01*
X150784191Y-126349891D01*
X150778080Y-126338866D01*
X150778078Y-126338862D01*
X150691781Y-126183180D01*
X150685666Y-126172148D01*
X150669649Y-126153460D01*
X150553412Y-126017845D01*
X150555237Y-126016280D01*
X150510124Y-125952209D01*
X150488848Y-125857412D01*
X150505469Y-125761689D01*
X150561704Y-125675260D01*
X151196704Y-125040260D01*
X151277486Y-124986284D01*
X151372774Y-124967330D01*
X151468062Y-124986284D01*
X151548844Y-125040260D01*
X151602820Y-125121042D01*
X151612415Y-125148710D01*
X151635373Y-125230112D01*
X151664163Y-125293432D01*
X151725434Y-125428190D01*
X151742457Y-125465631D01*
X151756600Y-125487285D01*
X151864667Y-125652743D01*
X151883934Y-125682243D01*
X151890246Y-125689291D01*
X151890249Y-125689294D01*
X151980399Y-125789944D01*
X152056548Y-125874962D01*
X152161793Y-125961565D01*
X152166890Y-125965759D01*
X152228427Y-126040941D01*
X152256508Y-126133950D01*
X152246858Y-126230624D01*
X152200948Y-126316247D01*
X152184284Y-126334561D01*
X152131652Y-126386919D01*
X152124945Y-126393591D01*
X152119329Y-126401195D01*
X152119326Y-126401198D01*
X152018048Y-126538318D01*
X151971234Y-126601700D01*
X151960873Y-126621393D01*
X151861563Y-126810149D01*
X151850769Y-126830664D01*
X151847685Y-126839596D01*
X151847683Y-126839600D01*
X151808984Y-126951675D01*
X151766325Y-127075216D01*
X151719843Y-127329727D01*
X151712393Y-127588340D01*
X151713553Y-127597718D01*
X151713553Y-127597722D01*
X151737291Y-127789659D01*
X151744148Y-127845105D01*
X151814375Y-128094112D01*
X151863065Y-128201200D01*
X151916419Y-128318545D01*
X151921459Y-128329631D01*
X151926632Y-128337551D01*
X152057164Y-128537405D01*
X152062936Y-128546243D01*
X152069248Y-128553291D01*
X152069251Y-128553294D01*
X152192830Y-128691266D01*
X152235550Y-128738962D01*
X152435329Y-128903354D01*
X152505642Y-128945186D01*
X152649544Y-129030799D01*
X152649548Y-129030801D01*
X152657675Y-129035636D01*
X152822927Y-129102570D01*
X152846327Y-129112048D01*
X152927529Y-129165388D01*
X152982139Y-129245743D01*
X153001840Y-129340879D01*
X153001434Y-129357196D01*
X153000930Y-129365917D01*
X152999030Y-129378008D01*
X152999525Y-129390234D01*
X152999525Y-129390237D01*
X153001229Y-129432299D01*
X153004789Y-129520207D01*
X153021663Y-129611245D01*
X153021737Y-129611231D01*
X153022071Y-129612640D01*
X153021926Y-129612667D01*
X153022496Y-129615742D01*
X153024195Y-129621617D01*
X153024196Y-129621623D01*
X153029139Y-129638719D01*
X153032190Y-129652293D01*
X153032519Y-129652215D01*
X153034567Y-129660876D01*
X153035990Y-129669649D01*
X153036417Y-129671012D01*
X153036926Y-129670853D01*
X153040430Y-129685670D01*
X153040598Y-129686387D01*
X153077924Y-129847420D01*
X153083637Y-129884755D01*
X153095017Y-130034344D01*
X153095016Y-130034344D01*
X153095019Y-130034360D01*
X153095964Y-130046782D01*
X153096577Y-130072824D01*
X153096009Y-130092547D01*
X153093897Y-130118517D01*
X153081973Y-130207295D01*
X153078637Y-130240501D01*
X153076421Y-130273648D01*
X153084914Y-130404545D01*
X153103868Y-130499833D01*
X153117104Y-130551692D01*
X153165100Y-130652011D01*
X153171859Y-130666138D01*
X153178524Y-130680070D01*
X153183464Y-130687463D01*
X153230656Y-130758093D01*
X153230665Y-130758106D01*
X153232500Y-130760852D01*
X153234487Y-130763506D01*
X153234491Y-130763512D01*
X153257252Y-130793918D01*
X153257257Y-130793923D01*
X153264580Y-130803706D01*
X153370455Y-130898807D01*
X153451237Y-130952783D01*
X153454112Y-130954489D01*
X153454117Y-130954492D01*
X153461160Y-130958670D01*
X153497265Y-130980093D01*
X153508794Y-130984160D01*
X153508798Y-130984162D01*
X153623099Y-131024485D01*
X153623106Y-131024487D01*
X153631474Y-131027439D01*
X153646873Y-131030502D01*
X153720773Y-131045202D01*
X153720779Y-131045203D01*
X153726762Y-131046393D01*
X153775534Y-131051196D01*
X153818224Y-131055401D01*
X153818226Y-131055401D01*
X153824307Y-131056000D01*
X154644105Y-131056000D01*
X154649497Y-131055529D01*
X154649507Y-131055529D01*
X154725297Y-131048915D01*
X154725307Y-131048914D01*
X154730712Y-131048442D01*
X154736058Y-131047502D01*
X154736064Y-131047501D01*
X154813074Y-131033957D01*
X154813086Y-131033955D01*
X154815671Y-131033500D01*
X154829300Y-131030502D01*
X154845830Y-131026866D01*
X154845832Y-131026865D01*
X154857094Y-131024388D01*
X154939206Y-130989503D01*
X154979892Y-130972218D01*
X154979894Y-130972217D01*
X154988078Y-130968740D01*
X155003694Y-130959283D01*
X155068336Y-130920134D01*
X155071181Y-130918411D01*
X155115414Y-130888273D01*
X155215131Y-130786735D01*
X155228271Y-130768848D01*
X155299955Y-130703275D01*
X155391279Y-130670124D01*
X155451079Y-130668245D01*
X155503022Y-130672881D01*
X156076930Y-130672881D01*
X156086273Y-130671792D01*
X156134701Y-130666146D01*
X156231543Y-130673938D01*
X156318031Y-130718197D01*
X156362869Y-130764250D01*
X156385076Y-130793915D01*
X156385079Y-130793918D01*
X156392406Y-130803706D01*
X156498281Y-130898807D01*
X156579063Y-130952783D01*
X156581938Y-130954489D01*
X156581943Y-130954492D01*
X156588986Y-130958670D01*
X156625091Y-130980093D01*
X156636620Y-130984160D01*
X156636624Y-130984162D01*
X156750925Y-131024485D01*
X156750932Y-131024487D01*
X156759300Y-131027439D01*
X156774699Y-131030502D01*
X156848599Y-131045202D01*
X156848605Y-131045203D01*
X156854588Y-131046393D01*
X156903360Y-131051196D01*
X156946050Y-131055401D01*
X156946052Y-131055401D01*
X156952133Y-131056000D01*
X158141410Y-131056000D01*
X158144306Y-131055864D01*
X158144308Y-131055864D01*
X158153061Y-131055453D01*
X158188249Y-131053801D01*
X158191155Y-131053528D01*
X158191163Y-131053527D01*
X158215820Y-131051207D01*
X158234693Y-131049431D01*
X158243460Y-131047296D01*
X158243465Y-131047295D01*
X158366376Y-131017361D01*
X158366382Y-131017359D01*
X158375157Y-131015222D01*
X158465238Y-130978827D01*
X158470646Y-130975997D01*
X158470652Y-130975994D01*
X158546675Y-130936208D01*
X158546680Y-130936205D01*
X158552082Y-130933378D01*
X158570772Y-130921124D01*
X158660854Y-130884729D01*
X158707298Y-130880359D01*
X159176055Y-130880359D01*
X159271343Y-130899313D01*
X159301119Y-130914045D01*
X159369127Y-130953547D01*
X159369139Y-130953554D01*
X159369233Y-130953609D01*
X159369251Y-130953619D01*
X159371036Y-130954656D01*
X159400459Y-130970459D01*
X159402260Y-130971350D01*
X159402285Y-130971363D01*
X159411646Y-130975994D01*
X159430236Y-130985192D01*
X159481114Y-131002500D01*
X159545741Y-131024485D01*
X159554424Y-131027439D01*
X159563373Y-131029219D01*
X159643723Y-131045202D01*
X159643729Y-131045203D01*
X159649712Y-131046393D01*
X159698484Y-131051196D01*
X159741174Y-131055401D01*
X159741176Y-131055401D01*
X159747257Y-131056000D01*
X160791368Y-131056000D01*
X160884572Y-131047236D01*
X160956969Y-131033500D01*
X160972770Y-131030502D01*
X160972772Y-131030502D01*
X160975774Y-131029932D01*
X160982626Y-131028280D01*
X161079697Y-131024365D01*
X161170881Y-131057898D01*
X161242293Y-131123772D01*
X161283060Y-131211961D01*
X161290000Y-131270340D01*
X161290000Y-150246000D01*
X161271046Y-150341288D01*
X161217070Y-150422070D01*
X161136288Y-150476046D01*
X161041000Y-150495000D01*
X108199000Y-150495000D01*
X108103712Y-150476046D01*
X108022930Y-150422070D01*
X107968954Y-150341288D01*
X107950000Y-150246000D01*
X107950000Y-143251000D01*
X109278800Y-143251000D01*
X109278800Y-145597800D01*
X109288407Y-145695345D01*
X109289597Y-145701328D01*
X109289598Y-145701334D01*
X109291608Y-145711439D01*
X109307361Y-145790633D01*
X109320597Y-145842492D01*
X109382017Y-145970870D01*
X109386957Y-145978263D01*
X109434149Y-146048893D01*
X109434158Y-146048906D01*
X109435993Y-146051652D01*
X109437980Y-146054306D01*
X109437984Y-146054312D01*
X109460745Y-146084718D01*
X109460750Y-146084723D01*
X109468073Y-146094506D01*
X109573948Y-146189607D01*
X109654730Y-146243583D01*
X109700758Y-146270893D01*
X109712287Y-146274960D01*
X109712291Y-146274962D01*
X109826592Y-146315285D01*
X109826599Y-146315287D01*
X109834967Y-146318239D01*
X109869021Y-146325013D01*
X109924266Y-146336002D01*
X109924272Y-146336003D01*
X109930255Y-146337193D01*
X109979027Y-146341996D01*
X110021717Y-146346201D01*
X110021719Y-146346201D01*
X110027800Y-146346800D01*
X111417400Y-146346800D01*
X111512688Y-146365754D01*
X111593470Y-146419730D01*
X111647446Y-146500512D01*
X111666400Y-146595800D01*
X111666400Y-147375800D01*
X111676007Y-147473345D01*
X111694961Y-147568633D01*
X111708197Y-147620492D01*
X111769617Y-147748870D01*
X111774557Y-147756263D01*
X111821749Y-147826893D01*
X111821758Y-147826906D01*
X111823593Y-147829652D01*
X111825580Y-147832306D01*
X111825584Y-147832312D01*
X111848345Y-147862718D01*
X111848350Y-147862723D01*
X111855673Y-147872506D01*
X111961548Y-147967607D01*
X112026577Y-148011057D01*
X112034937Y-148016643D01*
X112042330Y-148021583D01*
X112045205Y-148023289D01*
X112045210Y-148023292D01*
X112052253Y-148027470D01*
X112088358Y-148048893D01*
X112099887Y-148052960D01*
X112099891Y-148052962D01*
X112214192Y-148093285D01*
X112214199Y-148093287D01*
X112222567Y-148096239D01*
X112256621Y-148103013D01*
X112311866Y-148114002D01*
X112311872Y-148114003D01*
X112317855Y-148115193D01*
X112366627Y-148119996D01*
X112409317Y-148124201D01*
X112409319Y-148124201D01*
X112415400Y-148124800D01*
X120655000Y-148124800D01*
X120661081Y-148124201D01*
X120661083Y-148124201D01*
X120703773Y-148119996D01*
X120752545Y-148115193D01*
X120758528Y-148114003D01*
X120758534Y-148114002D01*
X120844596Y-148096883D01*
X120844600Y-148096882D01*
X120847833Y-148096239D01*
X120899692Y-148083003D01*
X121028070Y-148021583D01*
X121056991Y-148002259D01*
X121106093Y-147969451D01*
X121106106Y-147969442D01*
X121108852Y-147967607D01*
X121116790Y-147961665D01*
X121141918Y-147942855D01*
X121141923Y-147942850D01*
X121151706Y-147935527D01*
X121246807Y-147829652D01*
X121300783Y-147748870D01*
X121328093Y-147702842D01*
X121353253Y-147631523D01*
X121372485Y-147577008D01*
X121372487Y-147577001D01*
X121375439Y-147568633D01*
X121394393Y-147473345D01*
X121404000Y-147375800D01*
X121404000Y-145587800D01*
X121398948Y-145536504D01*
X121408471Y-145439817D01*
X121454270Y-145354134D01*
X121529372Y-145292500D01*
X121622344Y-145264298D01*
X121646749Y-145263099D01*
X132190530Y-145263099D01*
X132285818Y-145282053D01*
X132366600Y-145336029D01*
X132420576Y-145416811D01*
X132430122Y-145444302D01*
X132431100Y-145447759D01*
X132433290Y-145460178D01*
X132453836Y-145512070D01*
X132459914Y-145529236D01*
X132476609Y-145582509D01*
X132482720Y-145593534D01*
X132482725Y-145593545D01*
X132486708Y-145600730D01*
X132500439Y-145629777D01*
X132508102Y-145649131D01*
X132538659Y-145695827D01*
X132548076Y-145711439D01*
X132569016Y-145749217D01*
X132569022Y-145749225D01*
X132575134Y-145760252D01*
X132588686Y-145776063D01*
X132607978Y-145801758D01*
X132619380Y-145819182D01*
X132625875Y-145826396D01*
X132660768Y-145861289D01*
X132673756Y-145875316D01*
X132707388Y-145914555D01*
X132717350Y-145922282D01*
X132717356Y-145922288D01*
X132724634Y-145927933D01*
X132748091Y-145948612D01*
X133802356Y-147002877D01*
X133807203Y-147007862D01*
X133861386Y-147065159D01*
X133871719Y-147072394D01*
X133871721Y-147072396D01*
X133907094Y-147097165D01*
X133921645Y-147108170D01*
X133950476Y-147131683D01*
X133964892Y-147143440D01*
X133976064Y-147149281D01*
X133976069Y-147149284D01*
X133983346Y-147153088D01*
X134010800Y-147169780D01*
X134027857Y-147181723D01*
X134039438Y-147186734D01*
X134039437Y-147186734D01*
X134079066Y-147203883D01*
X134095538Y-147211740D01*
X134144990Y-147237593D01*
X134165007Y-147243333D01*
X134195262Y-147254166D01*
X134202792Y-147257425D01*
X134202800Y-147257428D01*
X134214367Y-147262433D01*
X134226709Y-147265011D01*
X134226711Y-147265012D01*
X134268983Y-147273843D01*
X134286684Y-147278223D01*
X134340341Y-147293609D01*
X134360963Y-147295196D01*
X134361107Y-147295207D01*
X134392918Y-147299735D01*
X134403927Y-147302035D01*
X134403932Y-147302036D01*
X134413297Y-147303992D01*
X134422991Y-147304500D01*
X134472320Y-147304500D01*
X134491424Y-147305234D01*
X134542967Y-147309200D01*
X134555480Y-147307619D01*
X134555489Y-147307619D01*
X134564631Y-147306464D01*
X134595840Y-147304500D01*
X137689351Y-147304500D01*
X137784639Y-147323454D01*
X137849976Y-147365844D01*
X137850354Y-147365339D01*
X137857909Y-147370991D01*
X137860594Y-147372733D01*
X137872438Y-147383953D01*
X138023745Y-147471839D01*
X138037589Y-147476032D01*
X138163732Y-147514237D01*
X138191212Y-147522560D01*
X138229364Y-147525965D01*
X138263458Y-147529008D01*
X138263466Y-147529008D01*
X138268975Y-147529500D01*
X139042887Y-147529500D01*
X139173803Y-147514237D01*
X139187400Y-147509301D01*
X139187402Y-147509301D01*
X139279056Y-147476032D01*
X139338282Y-147454534D01*
X139484615Y-147358593D01*
X139532323Y-147308232D01*
X139595001Y-147242068D01*
X139595003Y-147242066D01*
X139604953Y-147231562D01*
X139692839Y-147080255D01*
X139715534Y-147005323D01*
X139739856Y-146925018D01*
X139739856Y-146925017D01*
X139743560Y-146912788D01*
X139750500Y-146835025D01*
X139750500Y-145786113D01*
X139735237Y-145655197D01*
X139715467Y-145600730D01*
X139677942Y-145497352D01*
X139663000Y-145412393D01*
X139663000Y-144555216D01*
X139681954Y-144459928D01*
X139735930Y-144379146D01*
X139816712Y-144325170D01*
X139827041Y-144321158D01*
X139966686Y-144270469D01*
X139966685Y-144270469D01*
X139980282Y-144265534D01*
X140126615Y-144169593D01*
X140246953Y-144042562D01*
X140334839Y-143891255D01*
X140347087Y-143850816D01*
X140381856Y-143736018D01*
X140381856Y-143736017D01*
X140385560Y-143723788D01*
X140389176Y-143683270D01*
X140416525Y-143590043D01*
X140461120Y-143529333D01*
X142193584Y-141796868D01*
X142274366Y-141742892D01*
X142299502Y-141734024D01*
X142328670Y-141725459D01*
X142415992Y-141699819D01*
X142537032Y-141622031D01*
X142631254Y-141513294D01*
X142691024Y-141382416D01*
X142703071Y-141298628D01*
X142710235Y-141248801D01*
X142710235Y-141248796D01*
X142711500Y-141240000D01*
X142711500Y-141163337D01*
X142716762Y-141112419D01*
X142725843Y-141068949D01*
X142730223Y-141051248D01*
X142745609Y-140997591D01*
X142747207Y-140976825D01*
X142751735Y-140945014D01*
X142754035Y-140934005D01*
X142754036Y-140934000D01*
X142755992Y-140924635D01*
X142756500Y-140914941D01*
X142756500Y-140865612D01*
X142757234Y-140846509D01*
X142760232Y-140807544D01*
X142761200Y-140794965D01*
X142759619Y-140782452D01*
X142759619Y-140782443D01*
X142758464Y-140773301D01*
X142756500Y-140742092D01*
X142756500Y-139082060D01*
X142775454Y-138986772D01*
X142790186Y-138956996D01*
X142867573Y-138823764D01*
X142874839Y-138811255D01*
X142900418Y-138726800D01*
X142921856Y-138656018D01*
X142921856Y-138656017D01*
X142925560Y-138643788D01*
X142932500Y-138566025D01*
X142932500Y-137767113D01*
X142917237Y-137636197D01*
X142906319Y-137606117D01*
X142862469Y-137485314D01*
X142857534Y-137471718D01*
X142761593Y-137325385D01*
X142752724Y-137316984D01*
X142706783Y-137232899D01*
X142696373Y-137136303D01*
X142723722Y-137043076D01*
X142763618Y-136987194D01*
X142786953Y-136962562D01*
X142874839Y-136811255D01*
X142897427Y-136736675D01*
X142921856Y-136656018D01*
X142921856Y-136656017D01*
X142925560Y-136643788D01*
X142929166Y-136603387D01*
X142932008Y-136571542D01*
X142932008Y-136571534D01*
X142932500Y-136566025D01*
X142932500Y-136336139D01*
X142951454Y-136240851D01*
X143005430Y-136160069D01*
X143281439Y-135884060D01*
X143294706Y-135872729D01*
X143294482Y-135872480D01*
X143304173Y-135863755D01*
X143314736Y-135856080D01*
X143323472Y-135846378D01*
X143323475Y-135846375D01*
X143358438Y-135807545D01*
X143367411Y-135798088D01*
X143379227Y-135786272D01*
X143389743Y-135773286D01*
X143398202Y-135763382D01*
X143432670Y-135725102D01*
X143432674Y-135725097D01*
X143441403Y-135715402D01*
X143447928Y-135704101D01*
X143454217Y-135695444D01*
X143460038Y-135686480D01*
X143468255Y-135676333D01*
X143497565Y-135618810D01*
X143503780Y-135607362D01*
X143516921Y-135584601D01*
X143536053Y-135551462D01*
X143540086Y-135539050D01*
X143544438Y-135529275D01*
X143548269Y-135519294D01*
X143554195Y-135507664D01*
X143570906Y-135445300D01*
X143574594Y-135432846D01*
X143594551Y-135371426D01*
X143595915Y-135358454D01*
X143598140Y-135347984D01*
X143599813Y-135337419D01*
X143603191Y-135324813D01*
X143606139Y-135268562D01*
X143606570Y-135260338D01*
X143607593Y-135247346D01*
X143608656Y-135237234D01*
X143608657Y-135237212D01*
X143609338Y-135230735D01*
X143609338Y-135214042D01*
X143609679Y-135201011D01*
X143612415Y-135148802D01*
X143613098Y-135135771D01*
X143611056Y-135122878D01*
X143610373Y-135109853D01*
X143610707Y-135109835D01*
X143609338Y-135092436D01*
X143609338Y-132434197D01*
X143610707Y-132416802D01*
X143610373Y-132416785D01*
X143611056Y-132403751D01*
X143613097Y-132390864D01*
X143609679Y-132325643D01*
X143609338Y-132312612D01*
X143609338Y-132295901D01*
X143608657Y-132289424D01*
X143608656Y-132289402D01*
X143607591Y-132279271D01*
X143606568Y-132266279D01*
X143603873Y-132214851D01*
X143603873Y-132214848D01*
X143603190Y-132201823D01*
X143599814Y-132189223D01*
X143598142Y-132178665D01*
X143595915Y-132168190D01*
X143594551Y-132155210D01*
X143588364Y-132136167D01*
X143574596Y-132093796D01*
X143570894Y-132081296D01*
X143557571Y-132031576D01*
X143554194Y-132018972D01*
X143548269Y-132007343D01*
X143544433Y-131997350D01*
X143540087Y-131987588D01*
X143536053Y-131975174D01*
X143503780Y-131919275D01*
X143497563Y-131907824D01*
X143474183Y-131861937D01*
X143474177Y-131861928D01*
X143468254Y-131850303D01*
X143460038Y-131840156D01*
X143454206Y-131831177D01*
X143447930Y-131822538D01*
X143441403Y-131811234D01*
X143398218Y-131763272D01*
X143389752Y-131753360D01*
X143383330Y-131745429D01*
X143383323Y-131745422D01*
X143379227Y-131740363D01*
X143367402Y-131728538D01*
X143358429Y-131719082D01*
X143347229Y-131706643D01*
X143314736Y-131670556D01*
X143304177Y-131662885D01*
X143294482Y-131654155D01*
X143294706Y-131653906D01*
X143281441Y-131642577D01*
X142728591Y-131089727D01*
X142674615Y-131008945D01*
X142655661Y-130913657D01*
X142657877Y-130880511D01*
X142679803Y-130717264D01*
X142680670Y-130710809D01*
X142683498Y-130612634D01*
X142679702Y-130562723D01*
X142664591Y-130364081D01*
X142664590Y-130364077D01*
X142663874Y-130354659D01*
X142605455Y-130102620D01*
X142519307Y-129886689D01*
X142513085Y-129871093D01*
X142513084Y-129871092D01*
X142509584Y-129862318D01*
X142440465Y-129744743D01*
X142383257Y-129647428D01*
X142383256Y-129647426D01*
X142378468Y-129639282D01*
X142215124Y-129438645D01*
X142023311Y-129265025D01*
X141807443Y-129122415D01*
X141572488Y-129014100D01*
X141323852Y-128942569D01*
X141314467Y-128941358D01*
X141314465Y-128941358D01*
X141076640Y-128910681D01*
X141076636Y-128910681D01*
X141067257Y-128909471D01*
X141003995Y-128910962D01*
X140818055Y-128915344D01*
X140818050Y-128915344D01*
X140808608Y-128915567D01*
X140553857Y-128960715D01*
X140553593Y-128959224D01*
X140467989Y-128963940D01*
X140376320Y-128931753D01*
X140326991Y-128893492D01*
X140038430Y-128604931D01*
X139984454Y-128524149D01*
X139965500Y-128428861D01*
X139965500Y-125571139D01*
X139984454Y-125475851D01*
X140038430Y-125395069D01*
X140235629Y-125197870D01*
X140316411Y-125143894D01*
X140411699Y-125124940D01*
X140445351Y-125127588D01*
X140449201Y-125128502D01*
X140559806Y-125137499D01*
X140697634Y-125148710D01*
X140697641Y-125148710D01*
X140707070Y-125149477D01*
X140965145Y-125131204D01*
X140974370Y-125129117D01*
X140974374Y-125129116D01*
X141208267Y-125076191D01*
X141208266Y-125076191D01*
X141217486Y-125074105D01*
X141458287Y-124979494D01*
X141682006Y-124849547D01*
X141699830Y-124835191D01*
X141781421Y-124769472D01*
X141883495Y-124687256D01*
X141889871Y-124680286D01*
X141889876Y-124680281D01*
X142051735Y-124503333D01*
X142058118Y-124496355D01*
X142201855Y-124281236D01*
X142311400Y-124046851D01*
X142384231Y-123798593D01*
X142387661Y-123773060D01*
X142414423Y-123573808D01*
X142418672Y-123542175D01*
X142421500Y-123444000D01*
X142407982Y-123266285D01*
X142402593Y-123195447D01*
X142402592Y-123195443D01*
X142401876Y-123186025D01*
X142343457Y-122933986D01*
X142294978Y-122812472D01*
X142251087Y-122702459D01*
X142251086Y-122702458D01*
X142247586Y-122693684D01*
X142146466Y-122521673D01*
X142121259Y-122478794D01*
X142121258Y-122478792D01*
X142116470Y-122470648D01*
X141953126Y-122270011D01*
X141946112Y-122263663D01*
X141946108Y-122263658D01*
X141798403Y-122129962D01*
X141740477Y-122051965D01*
X141716808Y-121957737D01*
X141716500Y-121945356D01*
X141716500Y-121620626D01*
X141735454Y-121525338D01*
X141789739Y-121444249D01*
X141855256Y-121378960D01*
X141855257Y-121378958D01*
X141862496Y-121371745D01*
X142006465Y-121171390D01*
X142011494Y-121161216D01*
X142063637Y-121055710D01*
X142115778Y-120950212D01*
X142187500Y-120714149D01*
X142219703Y-120469543D01*
X142221500Y-120396000D01*
X142201284Y-120150113D01*
X142194739Y-120124054D01*
X142143671Y-119920745D01*
X142143670Y-119920742D01*
X142141180Y-119910829D01*
X142057851Y-119719185D01*
X142046876Y-119693944D01*
X142046875Y-119693942D01*
X142042802Y-119684575D01*
X141961242Y-119558502D01*
X141914343Y-119486006D01*
X141914341Y-119486003D01*
X141908792Y-119477426D01*
X141742749Y-119294947D01*
X141549131Y-119142037D01*
X141333139Y-119022803D01*
X141323513Y-119019394D01*
X141323508Y-119019392D01*
X141110204Y-118943857D01*
X141110202Y-118943856D01*
X141100574Y-118940447D01*
X140857680Y-118897181D01*
X140847459Y-118897056D01*
X140847458Y-118897056D01*
X140703497Y-118895297D01*
X140610982Y-118894167D01*
X140367104Y-118931486D01*
X140357396Y-118934659D01*
X140357392Y-118934660D01*
X140142302Y-119004962D01*
X140142299Y-119004963D01*
X140132595Y-119008135D01*
X139913755Y-119122056D01*
X139716459Y-119270190D01*
X139709396Y-119277581D01*
X139662251Y-119326916D01*
X139546007Y-119448558D01*
X139406975Y-119652371D01*
X139303099Y-119876154D01*
X139300370Y-119885994D01*
X139300369Y-119885997D01*
X139276374Y-119972521D01*
X139237167Y-120113897D01*
X139210949Y-120359217D01*
X139225151Y-120605525D01*
X139227398Y-120615495D01*
X139227398Y-120615496D01*
X139251836Y-120723934D01*
X139279391Y-120846206D01*
X139372212Y-121074796D01*
X139406811Y-121131256D01*
X139495786Y-121276452D01*
X139495790Y-121276457D01*
X139501121Y-121285157D01*
X139638931Y-121444249D01*
X139654707Y-121462461D01*
X139702770Y-121546895D01*
X139715500Y-121625492D01*
X139715500Y-121942400D01*
X139696546Y-122037688D01*
X139642570Y-122118470D01*
X139623022Y-122135208D01*
X139623193Y-122135408D01*
X139616004Y-122141548D01*
X139608366Y-122147128D01*
X139601660Y-122153799D01*
X139443042Y-122311589D01*
X139424945Y-122329591D01*
X139419329Y-122337195D01*
X139419326Y-122337198D01*
X139372379Y-122400760D01*
X139271234Y-122537700D01*
X139216946Y-122640884D01*
X139155807Y-122716383D01*
X139070425Y-122762741D01*
X138973802Y-122772896D01*
X138880648Y-122745303D01*
X138829491Y-122709548D01*
X138750404Y-122637963D01*
X138692477Y-122559966D01*
X138668808Y-122465738D01*
X138668500Y-122453356D01*
X138668500Y-122440171D01*
X138668597Y-122433218D01*
X138670448Y-122366963D01*
X138670448Y-122366962D01*
X138670800Y-122354358D01*
X138661108Y-122299394D01*
X138658600Y-122281315D01*
X138654238Y-122238366D01*
X138654237Y-122238363D01*
X138652963Y-122225816D01*
X138646735Y-122205943D01*
X138639125Y-122174727D01*
X138637700Y-122166643D01*
X138635510Y-122154222D01*
X138614964Y-122102330D01*
X138608886Y-122085164D01*
X138592191Y-122031891D01*
X138586080Y-122020866D01*
X138586075Y-122020855D01*
X138582092Y-122013670D01*
X138568361Y-121984623D01*
X138565342Y-121976998D01*
X138565342Y-121976997D01*
X138560698Y-121965269D01*
X138530141Y-121918573D01*
X138520724Y-121902961D01*
X138499784Y-121865183D01*
X138499778Y-121865175D01*
X138493666Y-121854148D01*
X138480114Y-121838337D01*
X138460822Y-121812642D01*
X138454652Y-121803213D01*
X138454650Y-121803211D01*
X138449420Y-121795218D01*
X138442925Y-121788004D01*
X138408032Y-121753111D01*
X138395044Y-121739084D01*
X138369621Y-121709422D01*
X138369618Y-121709419D01*
X138361412Y-121699845D01*
X138351450Y-121692118D01*
X138351444Y-121692112D01*
X138344166Y-121686467D01*
X138320709Y-121665788D01*
X137213801Y-120558880D01*
X137159825Y-120478098D01*
X137142247Y-120395939D01*
X137141500Y-120396000D01*
X137141025Y-120390227D01*
X137140602Y-120385071D01*
X137127450Y-120225105D01*
X137121284Y-120150113D01*
X137114739Y-120124054D01*
X137063671Y-119920745D01*
X137063670Y-119920742D01*
X137061180Y-119910829D01*
X136977851Y-119719185D01*
X136966876Y-119693944D01*
X136966875Y-119693942D01*
X136962802Y-119684575D01*
X136881242Y-119558502D01*
X136834343Y-119486006D01*
X136834341Y-119486003D01*
X136828792Y-119477426D01*
X136662749Y-119294947D01*
X136469131Y-119142037D01*
X136253139Y-119022803D01*
X136243513Y-119019394D01*
X136243508Y-119019392D01*
X136030204Y-118943857D01*
X136030202Y-118943856D01*
X136020574Y-118940447D01*
X135777680Y-118897181D01*
X135767459Y-118897056D01*
X135767458Y-118897056D01*
X135623497Y-118895297D01*
X135530982Y-118894167D01*
X135287104Y-118931486D01*
X135277396Y-118934659D01*
X135277392Y-118934660D01*
X135062302Y-119004962D01*
X135062299Y-119004963D01*
X135052595Y-119008135D01*
X134833755Y-119122056D01*
X134636459Y-119270190D01*
X134629396Y-119277581D01*
X134582251Y-119326916D01*
X134466007Y-119448558D01*
X134326975Y-119652371D01*
X134223099Y-119876154D01*
X134220370Y-119885994D01*
X134220369Y-119885997D01*
X134202509Y-119950400D01*
X134158780Y-120037157D01*
X134085179Y-120100576D01*
X133992911Y-120131002D01*
X133896023Y-120123802D01*
X133809266Y-120080073D01*
X133745847Y-120006472D01*
X133719996Y-119940083D01*
X133709591Y-119895192D01*
X133709590Y-119895190D01*
X133707457Y-119885986D01*
X133623681Y-119676000D01*
X133615087Y-119654459D01*
X133615086Y-119654458D01*
X133611586Y-119645684D01*
X133512672Y-119477426D01*
X133485259Y-119430794D01*
X133485258Y-119430792D01*
X133480470Y-119422648D01*
X133317126Y-119222011D01*
X133125313Y-119048391D01*
X132909445Y-118905781D01*
X132674490Y-118797466D01*
X132425854Y-118725935D01*
X132416469Y-118724724D01*
X132416467Y-118724724D01*
X132178642Y-118694047D01*
X132178638Y-118694047D01*
X132169259Y-118692837D01*
X132101507Y-118694434D01*
X131920057Y-118698710D01*
X131920052Y-118698710D01*
X131910610Y-118698933D01*
X131655859Y-118744081D01*
X131410869Y-118827244D01*
X131402480Y-118831602D01*
X131402477Y-118831603D01*
X131303920Y-118882800D01*
X131181277Y-118946508D01*
X131143511Y-118974098D01*
X130985410Y-119089599D01*
X130972366Y-119099128D01*
X130788945Y-119281591D01*
X130783325Y-119289199D01*
X130783324Y-119289201D01*
X130755467Y-119326916D01*
X130683608Y-119392302D01*
X130592197Y-119425212D01*
X130495150Y-119420635D01*
X130407241Y-119379268D01*
X130362080Y-119336186D01*
X130275102Y-119229351D01*
X130275100Y-119229349D01*
X130269126Y-119222011D01*
X130077313Y-119048391D01*
X129861445Y-118905781D01*
X129626490Y-118797466D01*
X129377854Y-118725935D01*
X129368469Y-118724724D01*
X129368467Y-118724724D01*
X129130642Y-118694047D01*
X129130638Y-118694047D01*
X129121259Y-118692837D01*
X129053507Y-118694434D01*
X128872057Y-118698710D01*
X128872052Y-118698710D01*
X128862610Y-118698933D01*
X128607859Y-118744081D01*
X128362869Y-118827244D01*
X128354480Y-118831602D01*
X128354477Y-118831603D01*
X128255920Y-118882800D01*
X128133277Y-118946508D01*
X128095511Y-118974098D01*
X127937410Y-119089599D01*
X127924366Y-119099128D01*
X127740945Y-119281591D01*
X127735329Y-119289195D01*
X127735326Y-119289198D01*
X127668800Y-119379268D01*
X127587234Y-119489700D01*
X127582832Y-119498067D01*
X127496772Y-119661639D01*
X127466769Y-119718664D01*
X127463685Y-119727596D01*
X127463683Y-119727600D01*
X127408989Y-119885997D01*
X127382325Y-119963216D01*
X127335843Y-120217727D01*
X127331022Y-120385071D01*
X127328720Y-120465003D01*
X127328393Y-120476340D01*
X127329553Y-120485718D01*
X127329553Y-120485722D01*
X127358224Y-120717551D01*
X127360148Y-120733105D01*
X127430375Y-120982112D01*
X127434292Y-120990726D01*
X127500882Y-121137183D01*
X127537459Y-121217631D01*
X127542632Y-121225551D01*
X127668814Y-121418745D01*
X127678936Y-121434243D01*
X127685248Y-121441291D01*
X127685251Y-121441294D01*
X127805790Y-121575872D01*
X127851550Y-121626962D01*
X128051329Y-121791354D01*
X128087111Y-121812642D01*
X128265544Y-121918799D01*
X128265548Y-121918801D01*
X128273675Y-121923636D01*
X128513472Y-122020764D01*
X128522664Y-122022945D01*
X128522666Y-122022946D01*
X128586764Y-122038157D01*
X128765201Y-122080502D01*
X128774619Y-122081268D01*
X128774625Y-122081269D01*
X129013634Y-122100710D01*
X129013641Y-122100710D01*
X129023070Y-122101477D01*
X129281145Y-122083204D01*
X129302729Y-122078320D01*
X129512064Y-122030953D01*
X129609185Y-122028410D01*
X129699887Y-122063227D01*
X129743087Y-122097743D01*
X130249561Y-122604217D01*
X130303537Y-122684999D01*
X130322491Y-122780287D01*
X130322491Y-125994288D01*
X130321914Y-126011225D01*
X130318457Y-126061932D01*
X130321037Y-126076714D01*
X130321037Y-126076719D01*
X130328761Y-126120976D01*
X130330664Y-126133867D01*
X130337856Y-126193294D01*
X130343163Y-126207337D01*
X130343459Y-126208543D01*
X130343928Y-126210776D01*
X130344651Y-126212907D01*
X130345020Y-126214128D01*
X130347601Y-126228921D01*
X130371689Y-126283794D01*
X130376590Y-126295803D01*
X130397774Y-126351864D01*
X130406280Y-126364240D01*
X130406873Y-126365375D01*
X130407845Y-126367398D01*
X130409059Y-126369301D01*
X130409703Y-126370391D01*
X130415738Y-126384137D01*
X130424877Y-126396047D01*
X130452193Y-126431647D01*
X130459852Y-126442189D01*
X130484106Y-126477478D01*
X130493788Y-126491565D01*
X130504994Y-126501549D01*
X130535215Y-126528475D01*
X130545643Y-126538318D01*
X133752068Y-129744743D01*
X133806044Y-129825525D01*
X133824998Y-129920813D01*
X133806044Y-130016101D01*
X133752068Y-130096883D01*
X133671286Y-130150859D01*
X133575998Y-130169813D01*
X133507152Y-130160106D01*
X133501750Y-130158552D01*
X133501752Y-130158552D01*
X133492654Y-130155935D01*
X133483269Y-130154724D01*
X133483267Y-130154724D01*
X133245442Y-130124047D01*
X133245438Y-130124047D01*
X133236059Y-130122837D01*
X133168307Y-130124434D01*
X132986857Y-130128710D01*
X132986852Y-130128710D01*
X132977410Y-130128933D01*
X132722659Y-130174081D01*
X132477669Y-130257244D01*
X132469280Y-130261602D01*
X132469277Y-130261603D01*
X132462320Y-130265217D01*
X132248077Y-130376508D01*
X132168886Y-130434361D01*
X132063262Y-130511525D01*
X132039166Y-130529128D01*
X131855745Y-130711591D01*
X131850126Y-130719198D01*
X131850123Y-130719202D01*
X131846261Y-130724431D01*
X131774404Y-130789820D01*
X131682993Y-130822732D01*
X131645968Y-130825500D01*
X129667993Y-130825500D01*
X129572705Y-130806546D01*
X129491923Y-130752570D01*
X129488303Y-130748612D01*
X129483904Y-130741903D01*
X129418632Y-130680070D01*
X129369478Y-130633506D01*
X129369475Y-130633504D01*
X129358975Y-130623557D01*
X129210171Y-130537124D01*
X129196326Y-130532931D01*
X129196324Y-130532930D01*
X129097619Y-130503036D01*
X129045474Y-130487243D01*
X129032750Y-130486107D01*
X129032748Y-130486107D01*
X128975438Y-130480992D01*
X128975431Y-130480992D01*
X128969922Y-130480500D01*
X128696561Y-130480500D01*
X128601273Y-130461546D01*
X128520491Y-130407570D01*
X128434654Y-130321733D01*
X128315508Y-130224560D01*
X128304332Y-130218718D01*
X128304324Y-130218712D01*
X128257569Y-130194269D01*
X128181905Y-130133325D01*
X128135324Y-130048065D01*
X128124916Y-129951470D01*
X128138114Y-129890766D01*
X128169383Y-129802132D01*
X128169386Y-129802119D01*
X128172339Y-129793750D01*
X128191293Y-129698462D01*
X128198861Y-129621623D01*
X128200301Y-129607000D01*
X128200301Y-129606998D01*
X128200900Y-129600917D01*
X128200900Y-129401207D01*
X128219854Y-129305919D01*
X128273830Y-129225137D01*
X128354612Y-129171161D01*
X128364932Y-129167153D01*
X128394154Y-129156546D01*
X128428372Y-129144126D01*
X128428458Y-129144094D01*
X128428971Y-129143908D01*
X128429541Y-129143694D01*
X128429584Y-129143678D01*
X128438739Y-129140239D01*
X128438753Y-129140234D01*
X128439391Y-129139994D01*
X128449708Y-129135987D01*
X128495719Y-129112048D01*
X128540432Y-129088785D01*
X128540439Y-129088781D01*
X128546470Y-129085643D01*
X128593276Y-129054369D01*
X128624493Y-129033511D01*
X128624506Y-129033502D01*
X128627252Y-129031667D01*
X128640449Y-129021788D01*
X128660318Y-129006915D01*
X128660323Y-129006910D01*
X128670106Y-128999587D01*
X128765207Y-128893712D01*
X128819183Y-128812930D01*
X128846493Y-128766902D01*
X128856350Y-128738962D01*
X128890885Y-128641068D01*
X128890887Y-128641061D01*
X128893839Y-128632693D01*
X128908849Y-128557235D01*
X128911602Y-128543394D01*
X128911603Y-128543388D01*
X128912793Y-128537405D01*
X128921454Y-128449466D01*
X128921801Y-128445943D01*
X128921801Y-128445941D01*
X128922400Y-128439860D01*
X128922400Y-126639400D01*
X128912793Y-126541855D01*
X128911083Y-126533255D01*
X128894483Y-126449804D01*
X128894482Y-126449800D01*
X128893839Y-126446567D01*
X128880603Y-126394708D01*
X128819183Y-126266330D01*
X128795325Y-126230624D01*
X128767051Y-126188307D01*
X128767042Y-126188294D01*
X128765207Y-126185548D01*
X128763216Y-126182888D01*
X128740455Y-126152482D01*
X128740450Y-126152477D01*
X128733127Y-126142694D01*
X128627252Y-126047593D01*
X128619859Y-126042653D01*
X128597663Y-126027822D01*
X128528964Y-125959123D01*
X128491785Y-125869364D01*
X128487000Y-125820786D01*
X128487000Y-125365072D01*
X128487097Y-125358119D01*
X128488948Y-125291865D01*
X128488948Y-125291863D01*
X128489300Y-125279259D01*
X128479608Y-125224293D01*
X128477102Y-125206230D01*
X128476880Y-125204038D01*
X128471463Y-125150716D01*
X128465234Y-125130838D01*
X128457626Y-125099630D01*
X128454010Y-125079123D01*
X128438624Y-125040260D01*
X128433473Y-125027251D01*
X128427384Y-125010055D01*
X128414465Y-124968832D01*
X128414463Y-124968827D01*
X128410691Y-124956791D01*
X128400592Y-124938572D01*
X128386860Y-124909520D01*
X128383844Y-124901903D01*
X128383842Y-124901899D01*
X128379198Y-124890170D01*
X128348653Y-124843493D01*
X128339229Y-124827870D01*
X128318285Y-124790086D01*
X128318282Y-124790082D01*
X128312166Y-124779048D01*
X128298614Y-124763237D01*
X128279322Y-124737542D01*
X128273152Y-124728113D01*
X128273150Y-124728111D01*
X128267920Y-124720118D01*
X128261425Y-124712904D01*
X128226532Y-124678011D01*
X128213544Y-124663984D01*
X128188121Y-124634322D01*
X128188118Y-124634319D01*
X128179912Y-124624745D01*
X128169950Y-124617018D01*
X128169944Y-124617012D01*
X128162666Y-124611367D01*
X128139209Y-124590688D01*
X122737644Y-119189123D01*
X122732797Y-119184138D01*
X122687281Y-119136006D01*
X122687280Y-119136006D01*
X122678614Y-119126841D01*
X122668279Y-119119604D01*
X122632906Y-119094835D01*
X122618355Y-119083830D01*
X122584884Y-119056533D01*
X122575108Y-119048560D01*
X122563936Y-119042719D01*
X122563931Y-119042716D01*
X122556654Y-119038912D01*
X122529200Y-119022220D01*
X122512143Y-119010277D01*
X122460935Y-118988117D01*
X122444462Y-118980260D01*
X122406192Y-118960253D01*
X122395010Y-118954407D01*
X122374993Y-118948667D01*
X122344738Y-118937834D01*
X122337208Y-118934575D01*
X122337200Y-118934572D01*
X122325633Y-118929567D01*
X122313291Y-118926989D01*
X122313289Y-118926988D01*
X122271017Y-118918157D01*
X122253316Y-118913777D01*
X122199659Y-118898391D01*
X122178893Y-118896793D01*
X122147082Y-118892265D01*
X122136073Y-118889965D01*
X122136068Y-118889964D01*
X122126703Y-118888008D01*
X122117009Y-118887500D01*
X122067680Y-118887500D01*
X122048577Y-118886766D01*
X122032591Y-118885536D01*
X121997033Y-118882800D01*
X121984520Y-118884381D01*
X121984511Y-118884381D01*
X121975369Y-118885536D01*
X121944160Y-118887500D01*
X120876736Y-118887500D01*
X120781448Y-118868546D01*
X120700666Y-118814570D01*
X120683638Y-118795707D01*
X120623102Y-118721351D01*
X120623100Y-118721349D01*
X120617126Y-118714011D01*
X120425313Y-118540391D01*
X120209445Y-118397781D01*
X119974490Y-118289466D01*
X119725854Y-118217935D01*
X119716469Y-118216724D01*
X119716467Y-118216724D01*
X119478642Y-118186047D01*
X119478638Y-118186047D01*
X119469259Y-118184837D01*
X119401507Y-118186434D01*
X119220057Y-118190710D01*
X119220052Y-118190710D01*
X119210610Y-118190933D01*
X118955859Y-118236081D01*
X118710869Y-118319244D01*
X118702480Y-118323602D01*
X118702477Y-118323603D01*
X118697247Y-118326320D01*
X118481277Y-118438508D01*
X118272366Y-118591128D01*
X118088945Y-118773591D01*
X118083329Y-118781195D01*
X118083326Y-118781198D01*
X117999794Y-118894292D01*
X117935234Y-118981700D01*
X117911010Y-119027741D01*
X117873452Y-119099128D01*
X117814769Y-119210664D01*
X117811685Y-119219596D01*
X117811683Y-119219600D01*
X117790278Y-119281591D01*
X117730325Y-119455216D01*
X117683843Y-119709727D01*
X117676393Y-119968340D01*
X117677553Y-119977718D01*
X117677553Y-119977722D01*
X117706987Y-120215719D01*
X117708148Y-120225105D01*
X117778375Y-120474112D01*
X117782291Y-120482724D01*
X117782291Y-120482725D01*
X117876349Y-120689594D01*
X117885459Y-120709631D01*
X117894801Y-120723934D01*
X118020680Y-120916664D01*
X118026936Y-120926243D01*
X118033248Y-120933291D01*
X118033251Y-120933294D01*
X118167790Y-121083503D01*
X118199550Y-121118962D01*
X118399329Y-121283354D01*
X118407453Y-121288187D01*
X118613544Y-121410799D01*
X118613548Y-121410801D01*
X118621675Y-121415636D01*
X118861472Y-121512764D01*
X118870664Y-121514945D01*
X118870666Y-121514946D01*
X118914457Y-121525338D01*
X119113201Y-121572502D01*
X119122619Y-121573268D01*
X119122625Y-121573269D01*
X119361634Y-121592710D01*
X119361641Y-121592710D01*
X119371070Y-121593477D01*
X119629145Y-121575204D01*
X119638370Y-121573117D01*
X119638374Y-121573116D01*
X119872267Y-121520191D01*
X119872266Y-121520191D01*
X119881486Y-121518105D01*
X120122287Y-121423494D01*
X120346006Y-121293547D01*
X120356423Y-121285157D01*
X120498746Y-121170521D01*
X120547495Y-121131256D01*
X120553871Y-121124286D01*
X120553876Y-121124281D01*
X120695515Y-120969438D01*
X120773815Y-120911921D01*
X120868165Y-120888747D01*
X120879243Y-120888500D01*
X121504039Y-120888500D01*
X121599327Y-120907454D01*
X121680109Y-120961430D01*
X124002360Y-123283680D01*
X125286785Y-124568105D01*
X125340761Y-124648887D01*
X125359715Y-124744175D01*
X125340761Y-124839463D01*
X125286785Y-124920245D01*
X125206003Y-124974221D01*
X125107674Y-124993156D01*
X124896007Y-124990570D01*
X124862982Y-124990167D01*
X124619104Y-125027486D01*
X124609396Y-125030659D01*
X124609392Y-125030660D01*
X124394302Y-125100962D01*
X124394299Y-125100963D01*
X124384595Y-125104135D01*
X124336607Y-125129116D01*
X124188473Y-125206230D01*
X124165755Y-125218056D01*
X123968459Y-125366190D01*
X123798007Y-125544558D01*
X123658975Y-125748371D01*
X123555099Y-125972154D01*
X123552370Y-125981994D01*
X123552369Y-125981997D01*
X123542862Y-126016280D01*
X123489167Y-126209897D01*
X123483136Y-126266330D01*
X123464216Y-126443364D01*
X123462949Y-126455217D01*
X123477151Y-126701525D01*
X123479398Y-126711495D01*
X123479398Y-126711496D01*
X123517721Y-126881547D01*
X123531391Y-126942206D01*
X123624212Y-127170796D01*
X123629548Y-127179503D01*
X123747786Y-127372452D01*
X123747790Y-127372457D01*
X123753121Y-127381157D01*
X123759806Y-127388875D01*
X123759808Y-127388877D01*
X123907966Y-127559915D01*
X123914657Y-127567639D01*
X124104481Y-127725233D01*
X124109562Y-127728202D01*
X124175486Y-127797070D01*
X124210698Y-127887620D01*
X124214480Y-127930855D01*
X124214480Y-129389376D01*
X124195526Y-129484664D01*
X124141550Y-129565446D01*
X124060768Y-129619422D01*
X123965480Y-129638376D01*
X123870192Y-129619422D01*
X123789410Y-129565446D01*
X123157706Y-128933741D01*
X122289449Y-128065484D01*
X122235473Y-127984702D01*
X122216519Y-127889414D01*
X122235473Y-127794126D01*
X122289449Y-127713344D01*
X122320924Y-127686699D01*
X122383737Y-127641895D01*
X122558496Y-127467745D01*
X122702465Y-127267390D01*
X122708508Y-127255164D01*
X122783991Y-127102434D01*
X122811778Y-127046212D01*
X122883500Y-126810149D01*
X122915703Y-126565543D01*
X122916054Y-126551205D01*
X122917338Y-126498626D01*
X122917500Y-126492000D01*
X122897284Y-126246113D01*
X122893394Y-126230624D01*
X122839671Y-126016745D01*
X122839670Y-126016742D01*
X122837180Y-126006829D01*
X122777054Y-125868548D01*
X122742876Y-125789944D01*
X122742875Y-125789942D01*
X122738802Y-125780575D01*
X122648227Y-125640566D01*
X122610343Y-125582006D01*
X122610341Y-125582003D01*
X122604792Y-125573426D01*
X122438749Y-125390947D01*
X122245131Y-125238037D01*
X122029139Y-125118803D01*
X122019513Y-125115394D01*
X122019508Y-125115392D01*
X121806204Y-125039857D01*
X121806202Y-125039856D01*
X121796574Y-125036447D01*
X121553680Y-124993181D01*
X121543459Y-124993056D01*
X121543458Y-124993056D01*
X121399497Y-124991297D01*
X121306982Y-124990167D01*
X121063104Y-125027486D01*
X121053396Y-125030659D01*
X121053392Y-125030660D01*
X120838302Y-125100962D01*
X120838299Y-125100963D01*
X120828595Y-125104135D01*
X120780607Y-125129116D01*
X120632473Y-125206230D01*
X120609755Y-125218056D01*
X120412459Y-125366190D01*
X120242007Y-125544558D01*
X120102975Y-125748371D01*
X119999099Y-125972154D01*
X119996370Y-125981994D01*
X119996369Y-125981997D01*
X119986862Y-126016280D01*
X119933167Y-126209897D01*
X119927136Y-126266330D01*
X119908216Y-126443364D01*
X119906949Y-126455217D01*
X119921151Y-126701525D01*
X119923398Y-126711495D01*
X119923398Y-126711496D01*
X119961721Y-126881547D01*
X119975391Y-126942206D01*
X120068212Y-127170796D01*
X120073548Y-127179503D01*
X120191786Y-127372452D01*
X120191790Y-127372457D01*
X120197121Y-127381157D01*
X120203806Y-127388875D01*
X120203808Y-127388877D01*
X120351966Y-127559915D01*
X120358657Y-127567639D01*
X120439414Y-127634684D01*
X120534161Y-127713344D01*
X120548481Y-127725233D01*
X120557302Y-127730388D01*
X120557304Y-127730389D01*
X120588128Y-127748401D01*
X120660836Y-127812841D01*
X120703350Y-127900201D01*
X120711500Y-127963386D01*
X120711500Y-127971154D01*
X120692546Y-128066442D01*
X120638570Y-128147224D01*
X120557788Y-128201200D01*
X120462500Y-128220154D01*
X120169950Y-128220154D01*
X120074662Y-128201200D01*
X119993880Y-128147224D01*
X118885869Y-127039212D01*
X118831893Y-126958430D01*
X118812939Y-126863142D01*
X118818117Y-126814702D01*
X118819500Y-126810149D01*
X118851703Y-126565543D01*
X118852054Y-126551205D01*
X118853338Y-126498626D01*
X118853500Y-126492000D01*
X118833284Y-126246113D01*
X118829394Y-126230624D01*
X118775671Y-126016745D01*
X118775670Y-126016742D01*
X118773180Y-126006829D01*
X118713054Y-125868548D01*
X118678876Y-125789944D01*
X118678875Y-125789942D01*
X118674802Y-125780575D01*
X118584227Y-125640566D01*
X118546343Y-125582006D01*
X118546341Y-125582003D01*
X118540792Y-125573426D01*
X118374749Y-125390947D01*
X118181131Y-125238037D01*
X117965139Y-125118803D01*
X117955513Y-125115394D01*
X117955508Y-125115392D01*
X117742204Y-125039857D01*
X117742202Y-125039856D01*
X117732574Y-125036447D01*
X117489680Y-124993181D01*
X117479459Y-124993056D01*
X117479458Y-124993056D01*
X117335497Y-124991297D01*
X117242982Y-124990167D01*
X116999104Y-125027486D01*
X116989396Y-125030659D01*
X116989392Y-125030660D01*
X116921695Y-125052787D01*
X116764595Y-125104135D01*
X116761230Y-125105887D01*
X116668683Y-125124798D01*
X116573297Y-125106341D01*
X116492235Y-125052787D01*
X116437838Y-124972288D01*
X116435522Y-124965960D01*
X116435457Y-124965986D01*
X116343087Y-124734459D01*
X116343086Y-124734458D01*
X116339586Y-124725684D01*
X116217165Y-124517438D01*
X116213259Y-124510794D01*
X116213258Y-124510792D01*
X116208470Y-124502648D01*
X116045126Y-124302011D01*
X115853313Y-124128391D01*
X115637445Y-123985781D01*
X115402490Y-123877466D01*
X115153854Y-123805935D01*
X115144469Y-123804724D01*
X115144467Y-123804724D01*
X114906642Y-123774047D01*
X114906638Y-123774047D01*
X114897259Y-123772837D01*
X114829507Y-123774434D01*
X114648057Y-123778710D01*
X114648052Y-123778710D01*
X114638610Y-123778933D01*
X114383859Y-123824081D01*
X114138869Y-123907244D01*
X114130480Y-123911602D01*
X114130477Y-123911603D01*
X114085038Y-123935207D01*
X113909277Y-124026508D01*
X113901635Y-124032091D01*
X113715533Y-124168048D01*
X113700366Y-124179128D01*
X113516945Y-124361591D01*
X113511329Y-124369195D01*
X113511326Y-124369198D01*
X113454202Y-124446538D01*
X113363234Y-124569700D01*
X113358832Y-124578067D01*
X113251057Y-124782912D01*
X113242769Y-124798664D01*
X113239685Y-124807596D01*
X113239683Y-124807600D01*
X113177984Y-124986284D01*
X113158325Y-125043216D01*
X113130363Y-125196323D01*
X113094600Y-125286649D01*
X113026988Y-125356419D01*
X112937824Y-125395004D01*
X112840681Y-125396531D01*
X112750349Y-125360766D01*
X112731091Y-125346991D01*
X112601149Y-125244369D01*
X112601147Y-125244368D01*
X112593131Y-125238037D01*
X112377139Y-125118803D01*
X112367513Y-125115394D01*
X112367508Y-125115392D01*
X112154204Y-125039857D01*
X112154202Y-125039856D01*
X112144574Y-125036447D01*
X111901680Y-124993181D01*
X111891459Y-124993056D01*
X111891458Y-124993056D01*
X111747497Y-124991297D01*
X111654982Y-124990167D01*
X111411104Y-125027486D01*
X111401396Y-125030659D01*
X111401392Y-125030660D01*
X111186302Y-125100962D01*
X111186299Y-125100963D01*
X111176595Y-125104135D01*
X111128607Y-125129116D01*
X110980473Y-125206230D01*
X110957755Y-125218056D01*
X110760459Y-125366190D01*
X110590007Y-125544558D01*
X110450975Y-125748371D01*
X110347099Y-125972154D01*
X110344370Y-125981994D01*
X110344369Y-125981997D01*
X110334862Y-126016280D01*
X110281167Y-126209897D01*
X110275136Y-126266330D01*
X110256216Y-126443364D01*
X110254949Y-126455217D01*
X110269151Y-126701525D01*
X110271398Y-126711495D01*
X110271398Y-126711496D01*
X110309721Y-126881547D01*
X110323391Y-126942206D01*
X110416212Y-127170796D01*
X110421548Y-127179503D01*
X110539786Y-127372452D01*
X110539790Y-127372457D01*
X110545121Y-127381157D01*
X110551806Y-127388875D01*
X110551808Y-127388877D01*
X110699966Y-127559915D01*
X110706657Y-127567639D01*
X110787414Y-127634684D01*
X110882161Y-127713344D01*
X110896481Y-127725233D01*
X110905302Y-127730388D01*
X110905304Y-127730389D01*
X110982776Y-127775660D01*
X111109495Y-127849709D01*
X111339979Y-127937722D01*
X111412595Y-127952496D01*
X111571730Y-127984873D01*
X111571732Y-127984873D01*
X111581743Y-127986910D01*
X111684021Y-127990660D01*
X111818081Y-127995576D01*
X111818087Y-127995576D01*
X111828294Y-127995950D01*
X111838425Y-127994652D01*
X111838430Y-127994652D01*
X111973462Y-127977354D01*
X112073011Y-127964601D01*
X112082787Y-127961668D01*
X112082792Y-127961667D01*
X112242331Y-127913803D01*
X112309322Y-127893705D01*
X112530881Y-127785164D01*
X112731737Y-127641895D01*
X112906496Y-127467745D01*
X112907654Y-127468907D01*
X112973904Y-127416486D01*
X113067364Y-127389946D01*
X113163866Y-127401192D01*
X113248718Y-127448512D01*
X113263416Y-127462073D01*
X114226917Y-128425573D01*
X114977774Y-129176430D01*
X115031750Y-129257212D01*
X115050704Y-129352500D01*
X115031750Y-129447788D01*
X114977774Y-129528570D01*
X114896992Y-129582546D01*
X114801704Y-129601500D01*
X113229348Y-129601500D01*
X113134060Y-129582546D01*
X113053278Y-129528570D01*
X113020282Y-129487750D01*
X112958343Y-129392007D01*
X112952792Y-129383426D01*
X112786749Y-129200947D01*
X112593131Y-129048037D01*
X112377139Y-128928803D01*
X112367513Y-128925394D01*
X112367508Y-128925392D01*
X112154204Y-128849857D01*
X112154202Y-128849856D01*
X112144574Y-128846447D01*
X111901680Y-128803181D01*
X111891459Y-128803056D01*
X111891458Y-128803056D01*
X111747497Y-128801297D01*
X111654982Y-128800167D01*
X111411104Y-128837486D01*
X111401396Y-128840659D01*
X111401392Y-128840660D01*
X111186302Y-128910962D01*
X111186299Y-128910963D01*
X111176595Y-128914135D01*
X111124300Y-128941358D01*
X110969796Y-129021788D01*
X110957755Y-129028056D01*
X110760459Y-129176190D01*
X110753396Y-129183581D01*
X110675567Y-129265025D01*
X110590007Y-129354558D01*
X110450975Y-129558371D01*
X110435345Y-129592044D01*
X110352386Y-129770765D01*
X110347099Y-129782154D01*
X110344370Y-129791994D01*
X110344369Y-129791997D01*
X110323881Y-129865874D01*
X110281167Y-130019897D01*
X110272326Y-130102620D01*
X110256126Y-130254205D01*
X110254949Y-130265217D01*
X110269151Y-130511525D01*
X110271398Y-130521495D01*
X110271398Y-130521496D01*
X110318827Y-130731952D01*
X110323391Y-130752206D01*
X110416212Y-130980796D01*
X110460949Y-131053801D01*
X110539786Y-131182452D01*
X110539790Y-131182457D01*
X110545121Y-131191157D01*
X110551806Y-131198875D01*
X110551808Y-131198877D01*
X110679933Y-131346788D01*
X110706657Y-131377639D01*
X110731104Y-131397935D01*
X110873892Y-131516479D01*
X110896481Y-131535233D01*
X110905302Y-131540388D01*
X110905304Y-131540389D01*
X110998046Y-131594583D01*
X111109495Y-131659709D01*
X111339979Y-131747722D01*
X111457671Y-131771667D01*
X111571730Y-131794873D01*
X111571732Y-131794873D01*
X111581743Y-131796910D01*
X111684021Y-131800660D01*
X111818081Y-131805576D01*
X111818087Y-131805576D01*
X111828294Y-131805950D01*
X111838425Y-131804652D01*
X111838430Y-131804652D01*
X111973462Y-131787354D01*
X112073011Y-131774601D01*
X112082787Y-131771668D01*
X112082792Y-131771667D01*
X112258067Y-131719082D01*
X112309322Y-131703705D01*
X112530881Y-131595164D01*
X112614901Y-131535233D01*
X112725674Y-131456220D01*
X112814257Y-131416317D01*
X112866354Y-131414725D01*
X112866209Y-131413995D01*
X112885163Y-131318707D01*
X112913000Y-131268694D01*
X113029764Y-131106199D01*
X113100761Y-131039877D01*
X113191733Y-131005773D01*
X113231973Y-131002500D01*
X113277704Y-131002500D01*
X113372992Y-131021454D01*
X113453774Y-131075430D01*
X113507750Y-131156212D01*
X113526704Y-131251500D01*
X113507750Y-131346788D01*
X113453774Y-131427570D01*
X113291279Y-131590065D01*
X113210497Y-131644041D01*
X113115209Y-131662995D01*
X113114719Y-131662898D01*
X113115854Y-131700032D01*
X113081433Y-131790885D01*
X113046338Y-131835005D01*
X112304602Y-132576740D01*
X112223821Y-132630716D01*
X112128533Y-132649670D01*
X112084867Y-132645811D01*
X111975374Y-132626308D01*
X111901680Y-132613181D01*
X111891459Y-132613056D01*
X111891458Y-132613056D01*
X111747497Y-132611297D01*
X111654982Y-132610167D01*
X111411104Y-132647486D01*
X111401396Y-132650659D01*
X111401392Y-132650660D01*
X111186302Y-132720962D01*
X111186299Y-132720963D01*
X111176595Y-132724135D01*
X111160113Y-132732715D01*
X110968901Y-132832254D01*
X110957755Y-132838056D01*
X110760459Y-132986190D01*
X110753396Y-132993581D01*
X110644904Y-133107112D01*
X110590007Y-133164558D01*
X110450975Y-133368371D01*
X110347099Y-133592154D01*
X110281167Y-133829897D01*
X110254949Y-134075217D01*
X110269151Y-134321525D01*
X110271398Y-134331495D01*
X110271398Y-134331496D01*
X110320512Y-134549430D01*
X110323391Y-134562206D01*
X110416212Y-134790796D01*
X110428080Y-134810163D01*
X110539786Y-134992452D01*
X110539790Y-134992457D01*
X110545121Y-135001157D01*
X110551806Y-135008875D01*
X110551808Y-135008877D01*
X110641164Y-135112032D01*
X110706657Y-135187639D01*
X110896481Y-135345233D01*
X110905302Y-135350388D01*
X110905304Y-135350389D01*
X110962526Y-135383827D01*
X111109495Y-135469709D01*
X111339979Y-135557722D01*
X111383124Y-135566500D01*
X111571730Y-135604873D01*
X111571732Y-135604873D01*
X111581743Y-135606910D01*
X111684021Y-135610660D01*
X111818081Y-135615576D01*
X111818087Y-135615576D01*
X111828294Y-135615950D01*
X111838425Y-135614652D01*
X111838430Y-135614652D01*
X111973462Y-135597354D01*
X112073011Y-135584601D01*
X112082787Y-135581668D01*
X112082792Y-135581667D01*
X112206113Y-135544669D01*
X112309322Y-135513705D01*
X112530881Y-135405164D01*
X112731737Y-135261895D01*
X112820432Y-135173509D01*
X112899262Y-135094954D01*
X112899263Y-135094953D01*
X112906496Y-135087745D01*
X113050465Y-134887390D01*
X113055333Y-134877542D01*
X113155252Y-134675369D01*
X113159778Y-134666212D01*
X113231500Y-134430149D01*
X113263703Y-134185543D01*
X113265500Y-134112000D01*
X113245284Y-133866113D01*
X113242794Y-133856199D01*
X113229738Y-133804220D01*
X113224907Y-133707186D01*
X113257578Y-133615689D01*
X113295166Y-133567491D01*
X113935386Y-132927271D01*
X114016168Y-132873295D01*
X114111456Y-132854341D01*
X114206744Y-132873295D01*
X114287526Y-132927271D01*
X114341502Y-133008053D01*
X114360043Y-133089007D01*
X114361087Y-133107112D01*
X114361500Y-133121446D01*
X114361500Y-134919661D01*
X114342546Y-135014949D01*
X114303828Y-135077761D01*
X114300841Y-135080586D01*
X114293603Y-135090923D01*
X114200273Y-135224213D01*
X114184277Y-135247057D01*
X114179268Y-135258632D01*
X114116569Y-135403522D01*
X114103567Y-135433567D01*
X114062008Y-135632497D01*
X114061500Y-135642191D01*
X114061500Y-140326829D01*
X114061403Y-140333782D01*
X114059811Y-140390785D01*
X114059200Y-140412642D01*
X114068892Y-140467605D01*
X114071400Y-140485685D01*
X114074637Y-140517550D01*
X114077037Y-140541184D01*
X114082711Y-140559288D01*
X114083265Y-140561057D01*
X114090873Y-140592266D01*
X114094490Y-140612778D01*
X114115036Y-140664670D01*
X114121114Y-140681836D01*
X114137809Y-140735109D01*
X114143920Y-140746134D01*
X114143925Y-140746145D01*
X114147908Y-140753330D01*
X114161639Y-140782377D01*
X114169302Y-140801731D01*
X114199859Y-140848427D01*
X114209276Y-140864039D01*
X114230216Y-140901817D01*
X114230222Y-140901825D01*
X114236334Y-140912852D01*
X114249886Y-140928663D01*
X114269178Y-140954358D01*
X114280580Y-140971782D01*
X114287075Y-140978996D01*
X114321968Y-141013889D01*
X114334956Y-141027916D01*
X114368588Y-141067155D01*
X114378550Y-141074882D01*
X114378556Y-141074888D01*
X114385834Y-141080533D01*
X114409291Y-141101212D01*
X114491570Y-141183491D01*
X114545546Y-141264273D01*
X114564500Y-141359561D01*
X114564500Y-142102000D01*
X114569645Y-142173940D01*
X114573404Y-142186743D01*
X114573406Y-142186752D01*
X114575942Y-142195388D01*
X114584601Y-142292156D01*
X114555569Y-142384872D01*
X114493267Y-142459421D01*
X114407178Y-142504452D01*
X114310410Y-142513111D01*
X114305083Y-142512430D01*
X114300945Y-142511607D01*
X114294868Y-142511008D01*
X114294858Y-142511007D01*
X114209483Y-142502599D01*
X114209481Y-142502599D01*
X114203400Y-142502000D01*
X110027800Y-142502000D01*
X110021719Y-142502599D01*
X110021717Y-142502599D01*
X109979028Y-142506803D01*
X109930255Y-142511607D01*
X109924272Y-142512797D01*
X109924266Y-142512798D01*
X109838204Y-142529917D01*
X109838200Y-142529918D01*
X109834967Y-142530561D01*
X109783108Y-142543797D01*
X109654730Y-142605217D01*
X109647337Y-142610157D01*
X109576707Y-142657349D01*
X109576694Y-142657358D01*
X109573948Y-142659193D01*
X109571294Y-142661180D01*
X109571288Y-142661184D01*
X109540882Y-142683945D01*
X109540877Y-142683950D01*
X109531094Y-142691273D01*
X109435993Y-142797148D01*
X109382017Y-142877930D01*
X109354707Y-142923958D01*
X109350640Y-142935487D01*
X109350638Y-142935491D01*
X109310315Y-143049792D01*
X109310313Y-143049799D01*
X109307361Y-143058167D01*
X109288407Y-143153455D01*
X109278800Y-143251000D01*
X107950000Y-143251000D01*
X107950000Y-116454000D01*
X107968954Y-116358712D01*
X108022930Y-116277930D01*
X108103712Y-116223954D01*
X108199000Y-116205000D01*
X151651000Y-116205000D01*
X151746288Y-116223954D01*
G37*
%TD.AperFunction*%
%TA.AperFunction,Conductor*%
G36*
X120903240Y-134495454D02*
G01*
X120984022Y-134549430D01*
X121037998Y-134630212D01*
X121047603Y-134657911D01*
X121080375Y-134774112D01*
X121122376Y-134866489D01*
X121177803Y-134988393D01*
X121187459Y-135009631D01*
X121192632Y-135017551D01*
X121316453Y-135207130D01*
X121328936Y-135226243D01*
X121335248Y-135233291D01*
X121335251Y-135233294D01*
X121495239Y-135411916D01*
X121501550Y-135418962D01*
X121701329Y-135583354D01*
X121753936Y-135614652D01*
X121915544Y-135710799D01*
X121915548Y-135710801D01*
X121923675Y-135715636D01*
X122163472Y-135812764D01*
X122172664Y-135814945D01*
X122172666Y-135814946D01*
X122248993Y-135833059D01*
X122415201Y-135872502D01*
X122424619Y-135873268D01*
X122424625Y-135873269D01*
X122663634Y-135892710D01*
X122663641Y-135892710D01*
X122673070Y-135893477D01*
X122931145Y-135875204D01*
X122940370Y-135873117D01*
X122940374Y-135873116D01*
X123174267Y-135820191D01*
X123174266Y-135820191D01*
X123183486Y-135818105D01*
X123267044Y-135785275D01*
X123362663Y-135768071D01*
X123457588Y-135788768D01*
X123537367Y-135844216D01*
X123589854Y-135925973D01*
X123607100Y-136017029D01*
X123607100Y-138501123D01*
X123588146Y-138596411D01*
X123534170Y-138677193D01*
X122137793Y-140073570D01*
X122057011Y-140127546D01*
X121961723Y-140146500D01*
X121904500Y-140146500D01*
X121809212Y-140127546D01*
X121728430Y-140073570D01*
X121674454Y-139992788D01*
X121655500Y-139897500D01*
X121655500Y-139592000D01*
X121653170Y-139559412D01*
X121651307Y-139533372D01*
X121650355Y-139520060D01*
X121646207Y-139505931D01*
X121620536Y-139418507D01*
X121609819Y-139382008D01*
X121600190Y-139367025D01*
X121541659Y-139275949D01*
X121541658Y-139275948D01*
X121532031Y-139260968D01*
X121423294Y-139166746D01*
X121407091Y-139159346D01*
X121407089Y-139159345D01*
X121345134Y-139131052D01*
X121292416Y-139106976D01*
X121211937Y-139095405D01*
X121158801Y-139087765D01*
X121158796Y-139087765D01*
X121150000Y-139086500D01*
X120150000Y-139086500D01*
X120145574Y-139086817D01*
X120145561Y-139086817D01*
X120096288Y-139090341D01*
X120078060Y-139091645D01*
X120065256Y-139095405D01*
X120065254Y-139095405D01*
X120034672Y-139104385D01*
X119940008Y-139132181D01*
X119818968Y-139209969D01*
X119724746Y-139318706D01*
X119664976Y-139449584D01*
X119662442Y-139467210D01*
X119650071Y-139553255D01*
X119644500Y-139592000D01*
X119644500Y-141674703D01*
X119625546Y-141769991D01*
X119571570Y-141850773D01*
X119490788Y-141904749D01*
X119395500Y-141923703D01*
X119300212Y-141904749D01*
X119219430Y-141850773D01*
X118883430Y-141514773D01*
X118829454Y-141433991D01*
X118810500Y-141338703D01*
X118810500Y-139393883D01*
X118829454Y-139298595D01*
X118883430Y-139217813D01*
X118924881Y-139184411D01*
X118941032Y-139174031D01*
X119035254Y-139065294D01*
X119095024Y-138934416D01*
X119115500Y-138792000D01*
X119115500Y-136282000D01*
X119110355Y-136210060D01*
X119069819Y-136072008D01*
X119060190Y-136057025D01*
X119001659Y-135965949D01*
X119001658Y-135965948D01*
X118992031Y-135950968D01*
X118978574Y-135939307D01*
X118978572Y-135939305D01*
X118951784Y-135916093D01*
X118892183Y-135839368D01*
X118866480Y-135745674D01*
X118878589Y-135649277D01*
X118926666Y-135564851D01*
X119003391Y-135505250D01*
X119015851Y-135499892D01*
X119022686Y-135496469D01*
X119036282Y-135491534D01*
X119182615Y-135395593D01*
X119218760Y-135357438D01*
X119293001Y-135279068D01*
X119293003Y-135279066D01*
X119302953Y-135268562D01*
X119390839Y-135117255D01*
X119401064Y-135083494D01*
X119437856Y-134962018D01*
X119437856Y-134962017D01*
X119441560Y-134949788D01*
X119447129Y-134887390D01*
X119448008Y-134877542D01*
X119448008Y-134877534D01*
X119448500Y-134872025D01*
X119448500Y-134725500D01*
X119467454Y-134630212D01*
X119521430Y-134549430D01*
X119602212Y-134495454D01*
X119697500Y-134476500D01*
X120807952Y-134476500D01*
X120903240Y-134495454D01*
G37*
%TD.AperFunction*%
%TA.AperFunction,Conductor*%
G36*
X133850193Y-134877454D02*
G01*
X133930975Y-134931430D01*
X133984951Y-135012212D01*
X134003905Y-135107500D01*
X133984951Y-135202788D01*
X133930975Y-135283569D01*
X133719486Y-135495057D01*
X133510973Y-135703570D01*
X133430192Y-135757546D01*
X133334904Y-135776500D01*
X132850000Y-135776500D01*
X132845574Y-135776817D01*
X132845561Y-135776817D01*
X132796288Y-135780341D01*
X132778060Y-135781645D01*
X132765256Y-135785405D01*
X132765254Y-135785405D01*
X132753801Y-135788768D01*
X132640008Y-135822181D01*
X132625025Y-135831810D01*
X132539970Y-135886472D01*
X132518968Y-135899969D01*
X132424746Y-136008706D01*
X132417346Y-136024909D01*
X132417345Y-136024911D01*
X132402679Y-136057025D01*
X132364976Y-136139584D01*
X132359295Y-136179100D01*
X132347752Y-136259384D01*
X132344500Y-136282000D01*
X132344500Y-138423504D01*
X132325546Y-138518792D01*
X132271570Y-138599574D01*
X132190788Y-138653550D01*
X132095500Y-138672504D01*
X132000212Y-138653550D01*
X131919430Y-138599574D01*
X130313430Y-136993573D01*
X130259454Y-136912791D01*
X130240500Y-136817503D01*
X130240500Y-136276321D01*
X130241077Y-136259384D01*
X130243513Y-136223655D01*
X130243513Y-136223654D01*
X130244534Y-136208677D01*
X130241954Y-136193895D01*
X130241954Y-136193890D01*
X130234230Y-136149633D01*
X130232327Y-136136742D01*
X130230710Y-136123383D01*
X130225135Y-136077315D01*
X130219828Y-136063272D01*
X130219532Y-136062066D01*
X130219063Y-136059833D01*
X130218340Y-136057702D01*
X130217971Y-136056481D01*
X130215390Y-136041688D01*
X130191302Y-135986815D01*
X130186401Y-135974806D01*
X130165217Y-135918745D01*
X130156711Y-135906369D01*
X130156118Y-135905234D01*
X130155146Y-135903211D01*
X130153932Y-135901308D01*
X130153288Y-135900218D01*
X130147253Y-135886472D01*
X130112125Y-135840691D01*
X130110798Y-135838962D01*
X130103139Y-135828420D01*
X130077705Y-135791414D01*
X130077704Y-135791412D01*
X130069203Y-135779044D01*
X130027776Y-135742134D01*
X130017348Y-135732291D01*
X129568627Y-135283570D01*
X129514651Y-135202788D01*
X129495697Y-135107500D01*
X129514651Y-135012212D01*
X129568627Y-134931430D01*
X129649409Y-134877454D01*
X129744697Y-134858500D01*
X133754905Y-134858500D01*
X133850193Y-134877454D01*
G37*
%TD.AperFunction*%
%TA.AperFunction,Conductor*%
G36*
X149647485Y-119904338D02*
G01*
X149728267Y-119958314D01*
X149760669Y-119998221D01*
X149776936Y-120023127D01*
X149783248Y-120030175D01*
X149783251Y-120030178D01*
X149881797Y-120140202D01*
X149949550Y-120215846D01*
X150149329Y-120380238D01*
X150157453Y-120385071D01*
X150363544Y-120507683D01*
X150363548Y-120507685D01*
X150371675Y-120512520D01*
X150611472Y-120609648D01*
X150620664Y-120611829D01*
X150620666Y-120611830D01*
X150737337Y-120639517D01*
X150863201Y-120669386D01*
X150872619Y-120670152D01*
X150872625Y-120670153D01*
X151111634Y-120689594D01*
X151111641Y-120689594D01*
X151121070Y-120690361D01*
X151372157Y-120672583D01*
X151372161Y-120672583D01*
X151379145Y-120672088D01*
X151379205Y-120672933D01*
X151468241Y-120677366D01*
X151556041Y-120718963D01*
X151621239Y-120790993D01*
X151653909Y-120882490D01*
X151649078Y-120979525D01*
X151642944Y-121000135D01*
X151587323Y-121161216D01*
X151540841Y-121415727D01*
X151533391Y-121674340D01*
X151550656Y-121813940D01*
X151543541Y-121910832D01*
X151499888Y-121997627D01*
X151426343Y-122061111D01*
X151334102Y-122091617D01*
X151303539Y-122093500D01*
X151097101Y-122093500D01*
X151080164Y-122092923D01*
X151044435Y-122090487D01*
X151044434Y-122090487D01*
X151029457Y-122089466D01*
X151014675Y-122092046D01*
X151014670Y-122092046D01*
X150970413Y-122099770D01*
X150957522Y-122101673D01*
X150955853Y-122101875D01*
X150898095Y-122108865D01*
X150884052Y-122114172D01*
X150882846Y-122114468D01*
X150880611Y-122114937D01*
X150878478Y-122115661D01*
X150877259Y-122116029D01*
X150862468Y-122118610D01*
X150848721Y-122124645D01*
X150848720Y-122124645D01*
X150807601Y-122142695D01*
X150795533Y-122147620D01*
X150739525Y-122168783D01*
X150727146Y-122177291D01*
X150726041Y-122177869D01*
X150723990Y-122178854D01*
X150722089Y-122180067D01*
X150720998Y-122180712D01*
X150707252Y-122186746D01*
X150682234Y-122205943D01*
X150659740Y-122223203D01*
X150649197Y-122230863D01*
X150612194Y-122256295D01*
X150599824Y-122264797D01*
X150589840Y-122276003D01*
X150562914Y-122306224D01*
X150553071Y-122316652D01*
X150181615Y-122688108D01*
X150100833Y-122742084D01*
X150005545Y-122761038D01*
X149988612Y-122760461D01*
X149970744Y-122759243D01*
X149955962Y-122761823D01*
X149955957Y-122761823D01*
X149911700Y-122769547D01*
X149898809Y-122771450D01*
X149894305Y-122771995D01*
X149839382Y-122778642D01*
X149825339Y-122783949D01*
X149824133Y-122784245D01*
X149821898Y-122784714D01*
X149819765Y-122785438D01*
X149818546Y-122785806D01*
X149803755Y-122788387D01*
X149790008Y-122794422D01*
X149790007Y-122794422D01*
X149748888Y-122812472D01*
X149736820Y-122817397D01*
X149680812Y-122838560D01*
X149668433Y-122847068D01*
X149667328Y-122847646D01*
X149665277Y-122848631D01*
X149663376Y-122849844D01*
X149662285Y-122850489D01*
X149648539Y-122856523D01*
X149603825Y-122890833D01*
X149601027Y-122892980D01*
X149590485Y-122900639D01*
X149566497Y-122917126D01*
X149512477Y-122945221D01*
X149471482Y-122960511D01*
X149356300Y-123046736D01*
X148295640Y-124107396D01*
X148248408Y-124161903D01*
X148179454Y-124288184D01*
X148175669Y-124305584D01*
X148152751Y-124410937D01*
X148148870Y-124428776D01*
X148150140Y-124446536D01*
X148150140Y-124446538D01*
X148151036Y-124459068D01*
X148155212Y-124517438D01*
X148155304Y-124518731D01*
X148143196Y-124615129D01*
X148095120Y-124699555D01*
X148018395Y-124759157D01*
X147924702Y-124784861D01*
X147889174Y-124784861D01*
X147886302Y-124784656D01*
X147868900Y-124780870D01*
X147851139Y-124782140D01*
X147851136Y-124782140D01*
X147787360Y-124786702D01*
X147725386Y-124791134D01*
X147590578Y-124841415D01*
X147475396Y-124927640D01*
X146414736Y-125988300D01*
X146367504Y-126042807D01*
X146361105Y-126054526D01*
X146317737Y-126133950D01*
X146298550Y-126169088D01*
X146297475Y-126174031D01*
X146251304Y-126248776D01*
X146172501Y-126305602D01*
X146069061Y-126328104D01*
X145978764Y-126328104D01*
X145883476Y-126309150D01*
X145802694Y-126255174D01*
X145748718Y-126174392D01*
X145741046Y-126150638D01*
X145740572Y-126146573D01*
X145681857Y-125984815D01*
X145605345Y-125868115D01*
X145568950Y-125778035D01*
X145569798Y-125680883D01*
X145606938Y-125593386D01*
X145612443Y-125587575D01*
X145698876Y-125438771D01*
X145748757Y-125274074D01*
X145751912Y-125238726D01*
X145755008Y-125204038D01*
X145755008Y-125204031D01*
X145755500Y-125198522D01*
X145755500Y-124524614D01*
X145744928Y-124433933D01*
X145742247Y-124410937D01*
X145742246Y-124410934D01*
X145740572Y-124396573D01*
X145735322Y-124382108D01*
X145695442Y-124272241D01*
X145680500Y-124187283D01*
X145680500Y-123669096D01*
X145699454Y-123573808D01*
X145753430Y-123493026D01*
X146806286Y-122440171D01*
X147924585Y-121321872D01*
X147924590Y-121321868D01*
X148780996Y-120465461D01*
X149288146Y-119958312D01*
X149368925Y-119904338D01*
X149464213Y-119885384D01*
X149552197Y-119885384D01*
X149647485Y-119904338D01*
G37*
%TD.AperFunction*%
%TD*%
%TA.AperFunction,Conductor*%
%TO.N,GND2*%
G36*
X161131842Y-116223954D02*
G01*
X161212624Y-116277930D01*
X161266600Y-116358712D01*
X161285515Y-116458406D01*
X161040329Y-130311406D01*
X161019692Y-130406344D01*
X160964294Y-130486158D01*
X160882570Y-130538696D01*
X160791368Y-130556000D01*
X159747257Y-130556000D01*
X159651969Y-130537046D01*
X159622192Y-130522313D01*
X159620295Y-130521211D01*
X159475287Y-130436983D01*
X159461442Y-130432790D01*
X159461440Y-130432789D01*
X159337615Y-130395287D01*
X159310590Y-130387102D01*
X159297866Y-130385966D01*
X159297864Y-130385966D01*
X159240554Y-130380851D01*
X159240547Y-130380851D01*
X159235038Y-130380359D01*
X158661130Y-130380359D01*
X158603294Y-130387102D01*
X158547453Y-130393612D01*
X158547450Y-130393613D01*
X158533089Y-130395287D01*
X158519498Y-130400220D01*
X158519495Y-130400221D01*
X158502627Y-130406344D01*
X158371331Y-130454002D01*
X158359232Y-130461935D01*
X158359231Y-130461935D01*
X158277935Y-130515235D01*
X158187854Y-130551630D01*
X158141410Y-130556000D01*
X156952133Y-130556000D01*
X156856845Y-130537046D01*
X156776063Y-130483070D01*
X156722087Y-130402288D01*
X156703133Y-130307000D01*
X156718705Y-130232147D01*
X156715420Y-130231152D01*
X156739202Y-130152628D01*
X156765301Y-130066455D01*
X156767528Y-130041502D01*
X156771552Y-129996419D01*
X156771552Y-129996412D01*
X156772044Y-129990903D01*
X156772044Y-129316995D01*
X156764697Y-129253982D01*
X156758791Y-129203318D01*
X156758790Y-129203315D01*
X156757116Y-129188954D01*
X156698401Y-129027196D01*
X156637031Y-128933591D01*
X156611981Y-128895383D01*
X156611979Y-128895380D01*
X156604048Y-128883284D01*
X156593545Y-128873334D01*
X156489622Y-128774887D01*
X156489619Y-128774885D01*
X156479119Y-128764938D01*
X156330315Y-128678505D01*
X156316470Y-128674312D01*
X156316468Y-128674311D01*
X156237409Y-128650367D01*
X156165618Y-128628624D01*
X156152894Y-128627488D01*
X156152892Y-128627488D01*
X156136540Y-128626029D01*
X156130110Y-128625455D01*
X156036883Y-128598106D01*
X155976173Y-128553511D01*
X155192075Y-127769413D01*
X155138099Y-127688631D01*
X155119248Y-127586173D01*
X155121312Y-127514515D01*
X155121500Y-127508000D01*
X155101876Y-127250025D01*
X155043457Y-126997986D01*
X154947586Y-126757684D01*
X154816470Y-126534648D01*
X154653126Y-126334011D01*
X154646112Y-126327663D01*
X154646108Y-126327658D01*
X154479127Y-126176514D01*
X154421200Y-126098517D01*
X154397532Y-126004289D01*
X154411725Y-125908176D01*
X154462496Y-125823846D01*
X154572733Y-125703333D01*
X154579116Y-125696355D01*
X154722853Y-125481236D01*
X154832398Y-125246851D01*
X154905229Y-124998593D01*
X154939670Y-124742175D01*
X154942498Y-124644000D01*
X154922874Y-124386025D01*
X154864455Y-124133986D01*
X154768584Y-123893684D01*
X154637468Y-123670648D01*
X154474124Y-123470011D01*
X154287584Y-123301164D01*
X154229659Y-123223167D01*
X154205990Y-123128939D01*
X154220182Y-123032826D01*
X154270075Y-122949461D01*
X154298488Y-122922639D01*
X154397134Y-122843184D01*
X154397139Y-122843180D01*
X154404493Y-122837256D01*
X154410869Y-122830286D01*
X154410874Y-122830281D01*
X154572733Y-122653333D01*
X154579116Y-122646355D01*
X154722853Y-122431236D01*
X154832398Y-122196851D01*
X154905229Y-121948593D01*
X154939670Y-121692175D01*
X154942498Y-121594000D01*
X154922874Y-121336025D01*
X154864455Y-121083986D01*
X154768584Y-120843684D01*
X154637468Y-120620648D01*
X154474124Y-120420011D01*
X154282311Y-120246391D01*
X154066443Y-120103781D01*
X153831488Y-119995466D01*
X153582852Y-119923935D01*
X153573467Y-119922724D01*
X153573465Y-119922724D01*
X153335640Y-119892047D01*
X153335636Y-119892047D01*
X153326257Y-119890837D01*
X153258505Y-119892434D01*
X153077055Y-119896710D01*
X153077050Y-119896710D01*
X153067608Y-119896933D01*
X153005946Y-119907861D01*
X152908813Y-119905825D01*
X152819852Y-119866773D01*
X152752608Y-119796650D01*
X152717317Y-119706131D01*
X152719353Y-119608997D01*
X152725659Y-119587811D01*
X152725400Y-119587735D01*
X152795568Y-119348553D01*
X152798231Y-119339477D01*
X152832672Y-119083059D01*
X152835500Y-118984884D01*
X152815876Y-118726909D01*
X152757457Y-118474870D01*
X152661586Y-118234568D01*
X152530470Y-118011532D01*
X152455900Y-117919937D01*
X152410440Y-117834076D01*
X152400000Y-117762732D01*
X152400000Y-116454000D01*
X152418954Y-116358712D01*
X152472930Y-116277930D01*
X152553712Y-116223954D01*
X152649000Y-116205000D01*
X161036554Y-116205000D01*
X161131842Y-116223954D01*
G37*
%TD.AperFunction*%
%TD*%
M02*
